<?xml version="1.0" encoding="utf-8"?>
<!-- Generator: Adobe Illustrator 19.0.0, SVG Export Plug-In . SVG Version: 6.00 Build 0)  -->
<svg version="1.1" xmlns="http://www.w3.org/2000/svg" xmlns:xlink="http://www.w3.org/1999/xlink" x="0px" y="0px"
	 viewBox="0 0 1600 1200" style="enable-background:new 0 0 1600 1200;" xml:space="preserve">
<style type="text/css">
	.st0{fill:#E8E8E8;}
	.st1{opacity:0.26;fill:#6D6C6C;}
	.st2{opacity:0.4;fill:#6D6C6C;}
	.st3{fill:#161616;}
	.st4{fill:#FFFFFF;stroke:#161616;stroke-width:2;stroke-miterlimit:10;}
	.st5{fill:#191919;}
	.st6{fill:#FFFFFF;stroke:#191919;stroke-width:2;stroke-miterlimit:10;}
	.st7{opacity:0.25;fill:#6D6C6C;}
	.st8{fill:#FFFFFF;}
	.st9{opacity:0.24;fill:#6D6C6C;}
	.st10{opacity:0.34;fill:#6D6C6C;}
	.st11{opacity:0.22;fill:#6D6C6C;}
	.st12{opacity:0.17;fill:#6D6C6C;}
	.st13{opacity:0.27;fill:#6D6C6C;}
	.st14{fill:#161616;stroke:#161616;stroke-miterlimit:10;}
	.st15{opacity:0.21;fill:#6D6C6C;}
	.st16{fill:#4C4C4C;}
	.st17{fill:#161616;stroke:#161616;stroke-width:2;stroke-miterlimit:10;}
	.st18{fill:#383838;}
</style>
<g id="background">
	<g>
		<g>
			<path class="st0" d="M1324.6,438.5c0,20.3,0,40.5,0,60.8c0,1.9,3,1.9,3,0c0-20.3,0-40.5,0-60.8
				C1327.6,436.5,1324.6,436.5,1324.6,438.5L1324.6,438.5z"/>
		</g>
	</g>
	<g>
		<g>
			<path class="st0" d="M1266.3,509.7c47.8,0,95.7,0,143.5,0c1.9,0,1.9-3,0-3c-47.8,0-95.7,0-143.5,0
				C1264.4,506.7,1264.4,509.7,1266.3,509.7L1266.3,509.7z"/>
		</g>
	</g>
	<g>
		<g>
			<path class="st0" d="M1300.7,511.2c0,14,0,27.9,0,41.9c0,1.9,3,1.9,3,0c0-14,0-27.9,0-41.9
				C1303.7,509.3,1300.7,509.3,1300.7,511.2L1300.7,511.2z"/>
		</g>
	</g>
	<g>
		<g>
			<path class="st0" d="M1370.5,509.2c0,13,0,25.9,0,38.9c0,1.9,3,1.9,3,0c0-13,0-25.9,0-38.9
				C1373.5,507.3,1370.5,507.3,1370.5,509.2L1370.5,509.2z"/>
		</g>
	</g>
	<g>
		<g>
			<path class="st0" d="M1225.5,937.3c5,33.2,13.3,65.8,24.7,97.4c0.7,1.8,3.6,1,2.9-0.8c-11.4-31.6-19.7-64.2-24.7-97.4
				C1228.1,934.6,1225.2,935.4,1225.5,937.3L1225.5,937.3z"/>
		</g>
	</g>
	<g>
		<g>
			<path class="st0" d="M1252.3,1033.8c-1,3.5,3.8,3.8,6.1,4.2c6.1,0.9,12.2,1.6,18.4,2c13.6,0.9,27.3,0.3,40.8-1.5
				c1.9-0.3,1.9-3.3,0-3c-10.1,1.3-20.2,2-30.4,1.9c-3,0-32.1-2.6-32.1-2.8C1255.8,1032.8,1252.9,1032,1252.3,1033.8L1252.3,1033.8z
				"/>
		</g>
	</g>
	<g>
		<g>
			<path class="st0" d="M1341.3,942.7c-3.5,32.2-11.7,63.6-24.3,93.4c-0.7,1.8,1.8,3.3,2.6,1.5c12.8-30.3,21.1-62.2,24.7-95
				C1344.5,940.8,1341.5,940.8,1341.3,942.7L1341.3,942.7z"/>
		</g>
	</g>
	<g>
		<g>
			<path class="st0" d="M1225.2,922.3c-5.4,4.4-2.1,12,3.2,14.7c4.1,2.1,9.3,2.1,13.8,2.5c6.9,0.6,13.8,1,20.7,1.4
				c26.7,1.5,53.4,1.8,80.1,2.1c1.9,0,1.9-3,0-3c-20.8-0.2-41.5-0.4-62.3-1.2c-10.2-0.4-20.4-0.9-30.6-1.6
				c-5.3-0.4-10.9-0.5-16.1-1.5c-4.5-0.9-12.7-6.4-6.6-11.2C1228.9,923.2,1226.7,921.1,1225.2,922.3L1225.2,922.3z"/>
		</g>
	</g>
	<g>
		<g>
			<path class="st0" d="M1226,923.8c20.6,0.8,41.2,1.6,61.8,2.4c10.1,0.4,20.3,0.8,30.4,1.2c5.1,0.2,10.2,0.2,15.2,0.6
				c2.6,0.2,5.6,0.4,7.8,1.9c2.6,1.8,4.3,6.2,0.8,8.2c-1.7,1-0.2,3.6,1.5,2.6c6-3.5,3.2-11.5-2.1-14.1c-4.1-1.9-9.1-1.7-13.5-1.8
				c-6.9-0.3-13.7-0.5-20.6-0.8c-27.2-1-54.3-2.1-81.5-3.1C1224.1,920.7,1224.1,923.7,1226,923.8L1226,923.8z"/>
		</g>
	</g>
	<g>
		<g>
			<path class="st0" d="M1240.2,1004c11.4,13.1,24.4,24.5,38.9,34c1.6,1.1,3.1-1.5,1.5-2.6c-14.3-9.4-27.1-20.6-38.3-33.5
				C1241.1,1000.4,1239,1002.6,1240.2,1004L1240.2,1004z"/>
		</g>
	</g>
	<g>
		<g>
			<path class="st0" d="M1232.6,968.4c22.3,26.3,45.1,52.9,74.7,71.4c1.6,1,3.2-1.6,1.5-2.6c-29.3-18.3-51.9-44.8-74.1-70.9
				C1233.5,964.8,1231.4,966.9,1232.6,968.4L1232.6,968.4z"/>
		</g>
	</g>
	<g>
		<g>
			<path class="st0" d="M1233.4,939.9c25.4,30.9,51.4,62.2,85,84.6c1.6,1.1,3.1-1.5,1.5-2.6c-33.4-22.2-59.1-53.4-84.4-84.1
				C1234.3,936.2,1232.2,938.4,1233.4,939.9L1233.4,939.9z"/>
		</g>
	</g>
	<g>
		<g>
			<path class="st0" d="M1262.2,940.3c16.9,24.4,37.4,46.1,60.8,64.3c1.5,1.2,3.6-0.9,2.1-2.1c-23.2-18.1-43.6-39.5-60.4-63.7
				C1263.7,937.2,1261.1,938.7,1262.2,940.3L1262.2,940.3z"/>
		</g>
	</g>
	<g>
		<g>
			<path class="st0" d="M1293,946.7c10.5,14,22.9,26.4,37,36.8c1.5,1.2,3-1.4,1.5-2.6c-13.6-10.2-25.7-22.2-35.9-35.8
				C1294.5,943.7,1291.9,945.2,1293,946.7L1293,946.7z"/>
		</g>
	</g>
	<g>
		<g>
			<path class="st0" d="M1317.3,946.2c5.8,7.4,12.4,14.1,19.7,20c1.5,1.2,3.6-0.9,2.1-2.1c-7.3-5.9-13.9-12.6-19.7-20
				C1318.3,942.5,1316.2,944.7,1317.3,946.2L1317.3,946.2z"/>
		</g>
	</g>
	<g>
		<g>
			<path class="st0" d="M1254.5,920.4c-8.8-11.1-15.6-23.7-20.1-37.1c-2.1-6.2-3.6-12.5-4.7-18.9c-0.3-2-0.9-4.3-0.9-6.3
				c0.1-2.4,0-2.2,2.2-3.5c3-1.8,6.7-3,9.9-4.4c-0.5-0.9-1-1.7-1.5-2.6c-8.3,3.9-8.3-15-10.5-19.2c-0.3,0.7-0.6,1.5-0.9,2.2
				c2.7-0.6,5.5-1.2,8.2-1.9c1-0.2,1.5-1.8,0.7-2.5c-7.3-5.8-2.9-16.9-1.1-24.3c2.6-10.2,4.6-20.5,6-31c2.8-20.8,3.3-41.8,1.5-62.8
				c-0.9,0.4-1.7,0.7-2.6,1.1c51.2,59.4,64.3,140.1,59.1,216.1c-0.1,1.9,2.9,1.9,3,0c4.1-60.9-3-123.8-32.4-178.2
				c-7.8-14.3-17-27.7-27.6-40.1c-0.8-1-2.7-0.2-2.6,1.1c2,23.6,1.2,47.3-2.7,70.6c-1.8,10.6-4.9,20.9-6.9,31.4
				c-1.3,6.4-1.5,13.7,4.1,18.2c0.2-0.8,0.4-1.7,0.7-2.5c-2.7,0.6-5.5,1.2-8.2,1.9c-1,0.2-1.3,1.4-0.9,2.2
				c2.9,5.5,0.9,12.2,4.8,17.3c2.5,3.3,6,4.8,9.8,3c1.8-0.8,0.2-3.4-1.5-2.6c-4.4,2-8.8,3.9-13.1,5.9c-0.4,0.2-0.8,0.8-0.7,1.3
				c2.1,24.8,11.4,48.3,26.8,67.8C1253.6,924,1255.7,921.9,1254.5,920.4L1254.5,920.4z"/>
		</g>
	</g>
	<g>
		<g>
			<path class="st0" d="M1296.7,824.1c4.5-10,9-19.9,13.5-29.9c1.9-4.1,3.5-8.6,5.9-12.5c2.9-4.8,9.6-10.1,14.7-4.7
				c1.2,1.3,3.1-0.3,2.4-1.8c-2-3.9-4-7.7-6-11.6c-0.1,0.6-0.2,1.2-0.2,1.8c10.4-12.4,18.9-26.1,25.2-41c-0.7,0.2-1.4,0.4-2.1,0.5
				c2.6,1.2,5.3,2.3,7.9,3.5c1.1,0.5,2.6-0.3,2.2-1.7c-0.7-2.7-1.5-5.4-2.2-8.1c-0.2,0.6-0.5,1.1-0.7,1.7c1.8-1,3.3-2.2,4.2-4.2
				c0.9-2.1,0.1-3.8,0.4-5.9c0.4-3.6,5.2-7.4,7.4-10.1c1.9-2.3,3.7-4.7,5.5-7.1c7.9-10.8,14.3-22.6,19.2-34.9c-1-0.1-2-0.3-2.9-0.4
				c-1,24.6-2,49.2-3,73.8c-0.5,11.8-0.6,23.7-1.7,35.5c-0.6,6.6-1.8,13.1-3.2,19.5c-0.9,4.1-2.5,19.5-9.6,17.8
				c-1.3-0.3-2.3,1-1.7,2.2c5,9.2,0.8,22.5-0.9,32.2c-1.7,9.9-3.9,19.8-6.7,29.5c-5.6,19.7-14,38.7-26.6,55
				c-1.2,1.5,0.9,3.6,2.1,2.1c13.3-17.2,22.1-37.1,27.9-57.9c3-10.8,5.2-21.8,7-32.8c1.5-9.5,4.5-20.6-0.3-29.6
				c-0.6,0.7-1.1,1.5-1.7,2.2c10.7,2.7,12-14.1,13.5-20.8c3-13.5,3.8-27.1,4.3-40.9c1.2-29.3,2.3-58.5,3.5-87.8
				c0.1-1.8-2.4-1.9-2.9-0.4c-4.7,11.6-10.7,22.6-17.9,32.8c-3.6,5.1-7.7,9.6-11.7,14.4c-1.1,1.3-2.2,2.5-2.6,4.3
				c-0.7,3.5,1.3,6.6-3.1,8.9c-0.6,0.3-0.9,1.1-0.7,1.7c0.7,2.7,1.5,5.4,2.2,8.1c0.7-0.6,1.5-1.1,2.2-1.7c-2.6-1.2-5.3-2.3-7.9-3.5
				c-0.7-0.3-1.7-0.3-2.1,0.5c-6.2,14.7-14.5,28.2-24.7,40.4c-0.5,0.5-0.6,1.2-0.2,1.8c2,3.9,4,7.7,6,11.6c0.8-0.6,1.6-1.2,2.4-1.8
				c-7-7.5-16.4-0.3-20.1,6.6c-7.1,13.1-12.5,27.4-18.7,41C1293.3,824.3,1295.9,825.8,1296.7,824.1L1296.7,824.1z"/>
		</g>
	</g>
	<g>
		<g>
			<path class="st0" d="M1253,742c15.3,57.2,24,115.9,26,175c0.1,1.9,3.1,1.9,3,0c-2-59.4-10.8-118.4-26.2-175.8
				C1255.4,739.3,1252.5,740.1,1253,742L1253,742z"/>
		</g>
	</g>
	<g>
		<g>
			<path class="st0" d="M1372.4,737.4c-28,54.1-49.2,111.6-62.9,170.9c-0.4,1.9,2.5,2.7,2.9,0.8c13.7-59.1,34.7-116.3,62.6-170.2
				C1375.9,737.2,1373.3,735.7,1372.4,737.4L1372.4,737.4z"/>
		</g>
	</g>
	<g>
		<g>
			<path class="st0" d="M1238.7,793.6c17.3,15.8,29.4,36.3,34.8,59.2c0.4,1.9,3.3,1.1,2.9-0.8c-5.5-23.3-17.9-44.4-35.6-60.5
				C1239.4,790.2,1237.3,792.3,1238.7,793.6L1238.7,793.6z"/>
		</g>
	</g>
	<g>
		<g>
			<path class="st0" d="M1276.2,764c-4.7,16.3-7.5,33-8.4,49.9c-0.1,1.9,2.9,1.9,3,0c0.9-16.7,3.7-33.1,8.3-49.1
				C1279.7,762.9,1276.8,762.2,1276.2,764L1276.2,764z"/>
		</g>
	</g>
	<g>
		<g>
			<path class="st0" d="M1312.9,787.5c4.1,3.6,5.2,9.5,6.6,14.5c1.5,5.4,2.6,10.9,3.5,16.4c1.8,11.2,2.4,22.6,1.9,33.9
				c-0.1,1.9,2.9,1.9,3,0c0.5-12.2-0.2-24.5-2.4-36.6c-1.1-6.1-2.5-12.2-4.2-18.1c-1.3-4.6-2.7-9.1-6.4-12.3
				C1313.5,784.2,1311.4,786.3,1312.9,787.5L1312.9,787.5z"/>
		</g>
	</g>
	<g>
		<g>
			<path class="st0" d="M1350.1,795c8-20.4,26.7-33.7,38.3-51.7c1-1.6-1.5-3.1-2.6-1.5c-11.8,18.3-30.5,31.7-38.6,52.5
				C1346.5,796,1349.4,796.8,1350.1,795L1350.1,795z"/>
		</g>
	</g>
	<g>
		<g>
			<path class="st0" d="M1372.9,697.5c0.6,12.8-0.5,25.5-3.2,38.1c-0.4,1.9,2.5,2.7,2.9,0.8c2.8-12.8,3.9-25.8,3.3-38.9
				C1375.8,695.5,1372.8,695.5,1372.9,697.5L1372.9,697.5z"/>
		</g>
	</g>
	<g>
		<g>
			<path class="st0" d="M717,11.6c0,24.6,0,49.2,0,73.8c0,1.9,3,1.9,3,0c0-24.6,0-49.2,0-73.8C720,9.6,717,9.6,717,11.6L717,11.6z"
				/>
		</g>
	</g>
	<g>
		<g>
			<path class="st0" d="M717.2,83.1c-38.7,16.7-68.1,51.8-77.8,92.9c-0.4,1.9,2.4,2.7,2.9,0.8c9.5-40.4,38.4-74.7,76.4-91.1
				C720.5,84.9,719,82.3,717.2,83.1L717.2,83.1z"/>
		</g>
	</g>
	<g>
		<g>
			<path class="st0" d="M718.2,86.5c35.7,17.5,61,52.6,66.5,91.9c0.3,1.9,3.2,1.1,2.9-0.8c-5.6-40-31.6-75.9-67.9-93.7
				C718,83,716.4,85.6,718.2,86.5L718.2,86.5z"/>
		</g>
	</g>
	<g>
		<g>
			<path class="st0" d="M638.7,179.1c5.2,10,15.1,15.7,25.6,18.9c13.6,4.2,28.5,5.6,42.6,6.3c28.3,1.4,58.2-4.2,79-24.8
				c1.4-1.4-0.7-3.5-2.1-2.1c-19.8,19.6-48.1,25.1-75,24c-13.2-0.5-26.7-1.9-39.6-5.1c-11.3-2.8-22.3-8-28-18.7
				C640.4,175.8,637.8,177.3,638.7,179.1L638.7,179.1z"/>
		</g>
	</g>
	<g>
		<g>
			<path class="st0" d="M646.7,181c42-12.4,86.5-14.9,129.6-7.2c1.9,0.3,2.7-2.6,0.8-2.9c-43.7-7.8-88.7-5.4-131.2,7.2
				C644,178.6,644.8,181.5,646.7,181L646.7,181z"/>
		</g>
	</g>
	<g>
		<g>
			<path class="st0" d="M646.8,160.8c21.6-6.3,43.6-11.4,66-13.5c10.5-1,21.2-1.3,31.7-0.7c6.1,0.3,12.1,1,18.2,2
				c3.1,0.5,5.8,0.9,8.5,2.6c1.6,1,1.4,1.3,3.2,1.1c0.6,0,1.3-0.4,1.4-1.1c0.3-1.3,0.1-1.7-0.8-2.6c-0.5-0.5-1.2-0.5-1.8-0.2
				c-0.2,0.1-0.3,0.1-0.5,0.2c-1.7,0.8-0.2,3.4,1.5,2.6c0.2-0.1,0.3-0.1,0.5-0.2c-0.6-0.1-1.2-0.2-1.8-0.2c0-0.1,0-0.2,0-0.3
				c0.5-0.4,1-0.7,1.4-1.1c-0.8,0.1-3.4-2.1-4.5-2.5c-2.6-0.8-5.6-1.1-8.3-1.5c-5.1-0.8-10.1-1.3-15.2-1.7
				c-11.5-0.8-23.1-0.4-34.5,0.7c-22.4,2.2-44.3,7.3-65.9,13.5C644.1,158.4,644.9,161.3,646.8,160.8L646.8,160.8z"/>
		</g>
	</g>
	<g>
		<g>
			<path class="st0" d="M714.4,84.9c0.3-1.3,0.1-2.2-0.5-3.4c-0.2-0.5-0.9-1.4-1-1.9c0-1.4,1.4-1.5,2.4-1.7c1.8-0.3,4.2-0.4,5.9,0.2
				c1.7,0.6,3.7,2.9,1.9,4.6c-1.4,1.3,0.7,3.5,2.1,2.1c1.8-1.7,2-4.3,0.8-6.5c-1.5-2.7-4.4-3.5-7.3-3.6c-2.5-0.1-6.1,0-7.9,2
				c-0.7,0.8-1,1.9-0.9,3.1c0.2,1.4,1.8,2.9,1.6,4.3C711.1,86,714,86.8,714.4,84.9L714.4,84.9z"/>
		</g>
	</g>
	<g>
		<g>
			<path class="st0" d="M716.1,80.1c0,0.3,0.1,0.6,0.1,0.9c-0.7-0.2-1.4-0.4-2.1-0.5c1,1.3,1.4,2.6,1.3,4.2c0.6-0.5,1.3-1,1.9-1.4
				c-0.9-0.2-2.3-1.5-1-2.2c0.9-0.4,1.2,0.7,0.6,0.9c0.4,0.1,0.8,0.1,1.2,0.2c-0.2-0.1,0.6-1.2,1.3-0.8c0.9,0.5,0.9,2,0.7,2.9
				c0.7-0.3,1.5-0.6,2.2-0.9c-1.7-0.8-2.5-2.5-1.9-4.3c-0.3,0.3-0.7,0.7-1,1c1.6-0.5,2.2,1.8,0.6,2.3c-1.6,0.5-2.3-1.4-2-2.7
				c0.6-1.9-2.3-2.6-2.9-0.8c-0.8,2.8,0.8,6.2,3.9,6.5c2.8,0.3,5.7-2.3,4.9-5.2c-0.6-2.2-5.1-5.1-6.4-2c-1.2,2.9,0.7,6.4,3.3,7.6
				c0.9,0.4,1.9,0.1,2.2-0.9c0.8-3.1-1.4-8.3-5.4-6.6c-1.4,0.6-2.5,2.2-2.5,3.8c0,1.8,1.7,3.3,3.4,2.3c3.4-2,1.2-7.4-2.7-6.5
				c-4.6,1.1-3.5,7.2,0.6,8.1c1,0.2,1.8-0.4,1.9-1.4c0.2-2.1-0.4-4-1.7-5.7c-0.5-0.6-1.3-1-2.1-0.5c-1.7,1-1.6,3.2-0.1,4.3
				C716.1,83.8,717.6,81.2,716.1,80.1L716.1,80.1z"/>
		</g>
	</g>
	<g>
		<g>
			<path class="st0" d="M700.8,175.9c-1,7.1,4,14.5,11.5,14.9c7.7,0.4,13.7-7.1,12.8-14.4c-0.3-1.9-3.3-1.9-3,0
				c0.7,5.2-2.7,10.8-8.3,11.4c-6,0.6-10.9-5.2-10.1-11C703.9,174.8,701,173.9,700.8,175.9L700.8,175.9z"/>
		</g>
	</g>
	<g>
		<g>
			<path class="st0" d="M654.5,204.2c-14.4,11.5-28.7,23.1-43.1,34.6c-1.5,1.2,0.6,3.3,2.1,2.1c14.4-11.5,28.7-23.1,43.1-34.6
				C658.2,205.1,656,203,654.5,204.2L654.5,204.2z"/>
		</g>
	</g>
	<g>
		<g>
			<path class="st0" d="M666.5,222.9c-9.1,13.2-18.1,26.4-27.2,39.7c-1.1,1.6,1.5,3.1,2.6,1.5c9.1-13.2,18.1-26.4,27.2-39.7
				C670.2,222.8,667.6,221.3,666.5,222.9L666.5,222.9z"/>
		</g>
	</g>
	<g>
		<g>
			<path class="st0" d="M774.7,208.1c11.8,13.3,23.9,26.3,36.1,39.2c1.3,1.4,3.5-0.7,2.1-2.1c-12.2-12.9-24.3-26-36.1-39.2
				C775.5,204.5,773.4,206.6,774.7,208.1L774.7,208.1z"/>
		</g>
	</g>
	<g>
		<g>
			<path class="st0" d="M736.9,235.2c7.3,16.2,15.2,32.2,23.7,47.8c0.9,1.7,3.5,0.2,2.6-1.5c-8.5-15.6-16.4-31.6-23.7-47.8
				C738.7,231.9,736.1,233.4,736.9,235.2L736.9,235.2z"/>
		</g>
	</g>
	<g>
		<g>
			<path class="st0" d="M574.4,303.3c0.3,30.1,0.7,60.3,1,90.4c0,0.8,0.7,1.5,1.5,1.5c38.6-1.9,77.1-3.8,115.7-5.7
				c1.9-0.1,1.9-3.1,0-3c-38.6,1.9-77.1,3.8-115.7,5.7c0.5,0.5,1,1,1.5,1.5c-0.3-30.1-0.7-60.3-1-90.4
				C577.4,301.4,574.4,301.4,574.4,303.3L574.4,303.3z"/>
		</g>
	</g>
	<g>
		<g>
			<path class="st0" d="M576.3,303.5c38.4,0,76.8,0,115.1,0c1.9,0,1.9-3,0-3c-38.4,0-76.8,0-115.1,0
				C574.4,300.5,574.4,303.5,576.3,303.5L576.3,303.5z"/>
		</g>
	</g>
	<g>
		<g>
			<path class="st0" d="M690.6,302c0,28.6,0,57.3,0,85.9c0,1.9,3,1.9,3,0c0-28.6,0-57.3,0-85.9C693.6,300.1,690.6,300.1,690.6,302
				L690.6,302z"/>
		</g>
	</g>
	<g>
		<g>
			<path class="st0" d="M582.7,311.7c0,23.6,0,47.1,0,70.7c0,1.9,3,1.9,3,0c0-23.6,0-47.1,0-70.7
				C585.7,309.8,582.7,309.8,582.7,311.7L582.7,311.7z"/>
		</g>
	</g>
	<g>
		<g>
			<path class="st0" d="M584.8,384.3c31.7-1,63.4-1.9,95.1-2.9c1.9-0.1,1.9-3.1,0-3c-31.7,1-63.4,1.9-95.1,2.9
				C582.9,381.4,582.9,384.4,584.8,384.3L584.8,384.3z"/>
		</g>
	</g>
	<g>
		<g>
			<path class="st0" d="M584.9,314.3c31.7-1.7,63.4-1.8,95-0.1c1.9,0.1,1.9-2.9,0-3c-31.7-1.7-63.4-1.7-95,0.1
				C583,311.4,582.9,314.4,584.9,314.3L584.9,314.3z"/>
		</g>
	</g>
	<g>
		<g>
			<path class="st0" d="M679.3,314.2c-0.4,21.7-0.8,43.5-1.3,65.2c0,1.9,3,1.9,3,0c0.4-21.7,0.8-43.5,1.3-65.2
				C682.3,312.3,679.3,312.3,679.3,314.2L679.3,314.2z"/>
		</g>
	</g>
	<g>
		<g>
			<path class="st0" d="M621.7,301.2c0.3-2.5,0.8-5.1,1.4-7.5c0.6-2.4,1.2-5.8,2.7-7.7c3.1-4.2,4.7,2.7,5.2,4.8
				c0.7,2.9,1,5.8,1.1,8.8c0,1.9,3,1.9,3,0c-0.1-4.6-0.8-9.1-2.4-13.5c-0.9-2.4-2.2-5.6-5.3-5.2c-2.7,0.3-4.1,3.1-5,5.3
				c-1.9,4.6-3,9.4-3.7,14.2C618.5,302.3,621.4,303.1,621.7,301.2L621.7,301.2z"/>
		</g>
	</g>
	<g>
		<g>
			<path class="st0" d="M586.1,356.4c12.9-5,26.4-0.9,38.9,3.5c12.8,4.5,25.6,9.2,38.4,13.8c1.8,0.7,2.6-2.2,0.8-2.9
				c-13.9-5-27.8-10.3-41.8-15c-12-4.1-24.9-7-37.1-2.3C583.5,354.1,584.3,357,586.1,356.4L586.1,356.4z"/>
		</g>
	</g>
	<g>
		<g>
			<path class="st0" d="M630.2,362.7c8.4-0.4,16.2-4.6,24-7.3c8.8-3.1,17.8-5.3,27.2-5.3c1.9,0,1.9-3,0-3c-8.4,0-16.5,1.7-24.5,4.2
				c-8.6,2.8-17.5,7.9-26.6,8.3C628.3,359.8,628.3,362.8,630.2,362.7L630.2,362.7z"/>
		</g>
	</g>
	<g>
		<g>
			<path class="st0" d="M647.2,339.5c4.4,2.1,9.8,0.4,12.3-3.8c2.6-4.4,0.5-9.6-3.9-11.9c-4.3-2.3-9.7-1.1-11.9,3.5
				c-2,4.2-0.7,9.5,3.2,12.1c1.6,1.1,3.1-1.5,1.5-2.6c-5.9-3.9-1.2-13.9,5.6-10.4c2.9,1.5,4.6,4.8,2.8,7.8c-1.6,2.7-5.3,4.1-8.2,2.7
				C647,336.1,645.5,338.7,647.2,339.5L647.2,339.5z"/>
		</g>
	</g>
	<g>
		<g>
			<path class="st0" d="M1097.6,193.3c0,5.4,0,10.8,0,16.2c0,1.9,3,1.9,3,0c0-5.4,0-10.8,0-16.2
				C1100.6,191.4,1097.6,191.4,1097.6,193.3L1097.6,193.3z"/>
		</g>
	</g>
	<g>
		<g>
			<path class="st0" d="M1099.9,193.3c58.6,0,117.2,0,175.8,0c1.9,0,1.9-3,0-3c-58.6,0-117.2,0-175.8,0
				C1098,190.3,1098,193.3,1099.9,193.3L1099.9,193.3z"/>
		</g>
	</g>
	<g>
		<g>
			<path class="st0" d="M1099.9,211.6c58.6,0,117.2,0,175.8,0c1.9,0,1.9-3,0-3c-58.6,0-117.2,0-175.8,0
				C1098,208.6,1098,211.6,1099.9,211.6L1099.9,211.6z"/>
		</g>
	</g>
	<g>
		<g>
			<path class="st0" d="M1274.5,192.6c0,5.6,0,11.2,0,16.8c0,1.9,3,1.9,3,0c0-5.6,0-11.2,0-16.8
				C1277.5,190.7,1274.5,190.7,1274.5,192.6L1274.5,192.6z"/>
		</g>
	</g>
	<g>
		<g>
			<path class="st0" d="M1105.2,191.4c0-31.5,0-63,0-94.6c0-1.9-3-1.9-3,0c0,31.5,0,63,0,94.6
				C1102.2,193.3,1105.2,193.3,1105.2,191.4L1105.2,191.4z"/>
		</g>
	</g>
	<g>
		<g>
			<path class="st0" d="M1103.7,97.1c1.2,0,2.5,0,3.7,0c1.9,0,1.9-3,0-3c-1.2,0-2.5,0-3.7,0C1101.8,94.1,1101.8,97.1,1103.7,97.1
				L1103.7,97.1z"/>
		</g>
	</g>
	<g>
		<g>
			<path class="st0" d="M1104.2,97.2c8.6-2.3,17.1-1.7,25.4,1.5c1.8,0.7,2.6-2.2,0.8-2.9c-8.7-3.4-17.9-3.9-27-1.5
				C1101.5,94.8,1102.3,97.7,1104.2,97.2L1104.2,97.2z"/>
		</g>
	</g>
	<g>
		<g>
			<path class="st0" d="M1128.3,98.7c0,30.5,0,61,0,91.5c0,1.9,3,1.9,3,0c0-30.5,0-61,0-91.5C1131.3,96.8,1128.3,96.7,1128.3,98.7
				L1128.3,98.7z"/>
		</g>
	</g>
	<g>
		<g>
			<path class="st0" d="M1107.2,107.4c0,3.9,0,7.9,0,11.8c0,1.9,3,1.9,3,0c0-3.9,0-7.9,0-11.8
				C1110.2,105.5,1107.2,105.5,1107.2,107.4L1107.2,107.4z"/>
		</g>
	</g>
	<g>
		<g>
			<path class="st0" d="M1109.1,108.4c5.5-0.9,11.1-1,16.6-0.2c1.9,0.3,2.7-2.6,0.8-2.9c-6.1-0.9-12.1-0.8-18.2,0.2
				C1106.4,105.8,1107.2,108.7,1109.1,108.4L1109.1,108.4z"/>
		</g>
	</g>
	<g>
		<g>
			<path class="st0" d="M1109.3,120.9c4.8-0.3,9.5-0.5,14.3-0.8c1.9-0.1,1.9-3.1,0-3c-4.8,0.3-9.5,0.5-14.3,0.8
				C1107.4,118,1107.4,121,1109.3,120.9L1109.3,120.9z"/>
		</g>
	</g>
	<g>
		<g>
			<path class="st0" d="M1124,106.4c-1,3.4-1,6.8,0,10.2c0.5,1.9,3.4,1.1,2.9-0.8c-0.8-2.9-0.8-5.7,0-8.6
				C1127.4,105.3,1124.5,104.5,1124,106.4L1124,106.4z"/>
		</g>
	</g>
	<g>
		<g>
			<path class="st0" d="M1116,157.8c-0.4,10-0.2,19.9,0.5,29.9c0.1,1.9,3.1,1.9,3,0c-0.7-9.9-0.9-19.9-0.5-29.9
				C1119.1,155.9,1116.1,155.9,1116,157.8L1116,157.8z"/>
		</g>
	</g>
	<g>
		<g>
			<path class="st0" d="M1117.4,158.7c3.7-0.4,7.3,0,10.8,1.1c1.8,0.6,2.6-2.3,0.8-2.9c-3.8-1.2-7.7-1.6-11.6-1.2
				C1115.5,155.9,1115.5,158.9,1117.4,158.7L1117.4,158.7z"/>
		</g>
	</g>
	<g>
		<g>
			<path class="st0" d="M1130.5,107.4c3.8-0.2,8.8-0.6,12.4,0.8c2.7,1.1,2.9,1.5,3.3,4.5c0.2,1.9,0.1,4,0.1,5.9
				c0.2,7.9,0.3,15.8,0.4,23.6c0.2,15.8,0.2,31.5,0.1,47.3c0,1.9,3,1.9,3,0c0.1-19,0.1-38.1-0.2-57.1c-0.1-4.6-0.2-9.2-0.2-13.8
				c-0.1-3.1,0.6-7.1-0.5-10c-2-5.5-14-4.5-18.4-4.2C1128.5,104.5,1128.5,107.5,1130.5,107.4L1130.5,107.4z"/>
		</g>
	</g>
	<g>
		<g>
			<path class="st0" d="M1119.9,212.9c1.6,5.8,3.8,11.4,6.6,16.7c0.9,1.7,3.5,0.2,2.6-1.5c-2.7-5.1-4.8-10.4-6.3-16
				C1122.2,210.2,1119.3,211,1119.9,212.9L1119.9,212.9z"/>
		</g>
	</g>
	<g>
		<g>
			<path class="st0" d="M1127.4,229.1c4.3,0.3,8.7,0.7,13,1c1.9,0.1,1.9-2.9,0-3c-4.3-0.3-8.7-0.7-13-1
				C1125.5,225.9,1125.5,228.9,1127.4,229.1L1127.4,229.1z"/>
		</g>
	</g>
	<g>
		<g>
			<path class="st0" d="M1137.7,212.5c0,5.4,0,10.8,0,16.2c0,1.9,3,1.9,3,0c0-5.4,0-10.8,0-16.2
				C1140.7,210.6,1137.7,210.6,1137.7,212.5L1137.7,212.5z"/>
		</g>
	</g>
	<g>
		<g>
			<path class="st0" d="M1141.7,229.5c2.9-5.4,5.8-10.8,8.7-16.2c0.9-1.7-1.7-3.2-2.6-1.5c-2.9,5.4-5.8,10.8-8.7,16.2
				C1138.2,229.7,1140.8,231.2,1141.7,229.5L1141.7,229.5z"/>
		</g>
	</g>
	<g>
		<g>
			<path class="st0" d="M1139.9,211.9c0.2,4-0.1,7.9-1,11.9c-0.3,1.6,1.9,2.7,2.7,1.2c2-4,3.6-8.2,4.5-12.5c0.3-1.3-1-2.3-2.2-1.7
				c-1,0.5-2,0.9-2.9,1.4c-1.3,0.6-0.8,2.4,0.4,2.7c0.2,0.3,0.5,0.6,0.7,0.8c0.2,1.9,3.2,1.9,3,0c-0.2-1.9-1.1-3.1-2.9-3.7
				c0.1,0.9,0.2,1.8,0.4,2.7c1-0.5,2-0.9,2.9-1.4c-0.7-0.6-1.5-1.1-2.2-1.7c-0.9,4.1-2.3,8-4.2,11.8c0.9,0.4,1.8,0.8,2.7,1.2
				c0.9-4.2,1.3-8.4,1.1-12.6C1142.8,210,1139.8,210,1139.9,211.9L1139.9,211.9z"/>
		</g>
	</g>
	<g>
		<g>
			<path class="st0" d="M1147,211.1c-2,1.3-3.5,3.1-4.3,5.4c-0.3,0.8,0.3,1.6,1,1.8c0.8,0.2,1.6-0.3,1.8-1c0.6-1.5,1.6-2.7,2.9-3.6
				C1150.2,212.7,1148.7,210.1,1147,211.1L1147,211.1z"/>
		</g>
	</g>
	<g>
		<g>
			<path class="st0" d="M1216.3,211.6c2.3,6.3,4.9,12.5,7.9,18.5c0.9,1.7,3.5,0.2,2.6-1.5c-2.9-5.8-5.4-11.7-7.6-17.8
				C1218.5,209,1215.6,209.8,1216.3,211.6L1216.3,211.6z"/>
		</g>
	</g>
	<g>
		<g>
			<path class="st0" d="M1225,229.6c3.9,0,7.9,0,11.8,0c1.9,0,1.9-3,0-3c-3.9,0-7.9,0-11.8,0C1223.1,226.6,1223.1,229.6,1225,229.6
				L1225,229.6z"/>
		</g>
	</g>
	<g>
		<g>
			<path class="st0" d="M1235.2,210.9c-0.8,5.3-1.2,10.6-1.1,16c0,1.9,3,1.9,3,0c-0.1-5.1,0.2-10.1,1-15.2
				C1238.4,209.8,1235.5,209,1235.2,210.9L1235.2,210.9z"/>
		</g>
	</g>
	<g>
		<g>
			<path class="st0" d="M1236.7,229.2c4.2-5.2,8.1-10.7,11.5-16.5c1-1.7-1.6-3.2-2.6-1.5c-3.3,5.6-6.9,10.9-11,15.9
				C1233.4,228.6,1235.5,230.7,1236.7,229.2L1236.7,229.2z"/>
		</g>
	</g>
	<g>
		<g>
			<path class="st0" d="M1236.8,212.2c-1,3.1-1.7,6.2-2,9.5c-0.1,1.5,2.1,2,2.8,0.8c1.5-2.9,3.3-5.7,5.2-8.4c-0.9-0.5-1.7-1-2.6-1.5
				c-1.5,2.8-2.9,5.6-4.4,8.5c-0.9,1.7,1.6,3.2,2.6,1.5c1.6-2.6,3.2-5.1,4.7-7.7c0.9-1.5-1.2-3-2.4-1.8c-0.7,0.8-1.5,1.1-2.6,1.2
				c0.5,0.5,1,1,1.5,1.5c0-0.2,0.3-0.3,0.5-0.2c1.3,1.4,3.5-0.7,2.1-2.1c-2-2.1-5.6-0.5-5.6,2.3c0,0.8,0.7,1.5,1.5,1.5
				c1.8-0.1,3.4-0.7,4.7-2c-0.8-0.6-1.6-1.2-2.4-1.8c-1.6,2.6-3.2,5.1-4.7,7.7c0.9,0.5,1.7,1,2.6,1.5c1.5-2.8,2.9-5.6,4.4-8.5
				c0.9-1.7-1.5-3.1-2.6-1.5c-1.9,2.7-3.7,5.5-5.2,8.4c0.9,0.3,1.9,0.5,2.8,0.8c0.3-3,0.9-5.8,1.9-8.7
				C1240.3,211.1,1237.4,210.4,1236.8,212.2L1236.8,212.2z"/>
		</g>
	</g>
	<g>
		<g>
			<path class="st0" d="M1182.5,96.8c-1.9,31.1-2,62.2-0.2,93.3c0.1,1.9,3.1,1.9,3,0c-1.8-31.1-1.7-62.2,0.2-93.3
				C1185.6,94.9,1182.6,94.9,1182.5,96.8L1182.5,96.8z"/>
		</g>
	</g>
	<g>
		<g>
			<path class="st0" d="M1184.3,97.6c6.7-1.5,13.3-1.1,19.8,1.3c1.8,0.7,2.6-2.2,0.8-2.9c-6.9-2.5-14.2-2.9-21.3-1.3
				C1181.7,95.1,1182.5,98,1184.3,97.6L1184.3,97.6z"/>
		</g>
	</g>
	<g>
		<g>
			<path class="st0" d="M1202.6,98c-0.7,29.9-0.4,59.7,0.8,89.6c0.1,1.9,3.1,1.9,3,0c-1.2-29.8-1.5-59.7-0.8-89.6
				C1205.7,96.1,1202.7,96.1,1202.6,98L1202.6,98z"/>
		</g>
	</g>
	<g>
		<g>
			<path class="st0" d="M1204.9,113.2c5.8-1.7,11.4-1.6,17.2,0.1c-0.4-0.5-0.7-1-1.1-1.4c1.1,26.1,2.2,52.2,3.4,78.3
				c0.1,1.9,3.1,1.9,3,0c-1.1-26.1-2.2-52.2-3.4-78.3c0-0.7-0.4-1.3-1.1-1.4c-6.3-1.9-12.5-1.9-18.8-0.1
				C1202.2,110.8,1203,113.7,1204.9,113.2L1204.9,113.2z"/>
		</g>
	</g>
	<g>
		<g>
			<path class="st0" d="M1205.6,99.8c5.5-0.4,5.2,6.7,4.7,10.3c-0.3,1.9,2.6,2.7,2.9,0.8c0.5-3.4,0.9-7.2-0.9-10.3
				c-1.4-2.4-3.9-4-6.7-3.8C1203.7,97,1203.7,100,1205.6,99.8L1205.6,99.8z"/>
		</g>
	</g>
	<g>
		<g>
			<path class="st0" d="M1222.7,113.6c2.6,1,5.6,2.1,7.7,4.1c3,2.8,3.3,6.6,3.7,10.4c0.7,6.9,1.2,13.8,1.5,20.8
				c0.7,13.5,0.8,27.1,0.3,40.6c-0.1,1.9,2.9,1.9,3,0c0.6-16.8,0.3-33.7-0.9-50.5c-0.4-6.2,0.2-14.4-2.8-20
				c-2.3-4.5-7.2-6.5-11.7-8.2C1221.7,110,1220.9,112.9,1222.7,113.6L1222.7,113.6z"/>
		</g>
	</g>
	<g>
		<g>
			<path class="st0" d="M1146.3,108.7c4.6,4.8,10.7,6.1,11.3,13.8c0.5,7.4,0.3,14.8,0.4,22.2c0.2,14.8,0.2,29.5,0,44.3
				c0,1.9,3,1.9,3,0c0.2-16.7,0.2-33.5-0.1-50.2c-0.1-6.6,1.1-14.9-1.1-21.2c-1.9-5.4-7.7-7.1-11.4-11
				C1147.1,105.2,1145,107.3,1146.3,108.7L1146.3,108.7z"/>
		</g>
	</g>
	<g>
		<g>
			<path class="st0" d="M319.5,684.6c53.3,0,106.5,0,159.8,0c1.9,0,1.9-3,0-3c-53.3,0-106.5,0-159.8,0
				C317.6,681.6,317.6,684.6,319.5,684.6L319.5,684.6z"/>
		</g>
	</g>
	<g>
		<g>
			<path class="st0" d="M358,687.6c0,11.8,0,23.7,0,35.5c0,1.9,3,1.9,3,0c0-11.8,0-23.7,0-35.5C361,685.7,358,685.7,358,687.6
				L358,687.6z"/>
		</g>
	</g>
	<g>
		<g>
			<path class="st0" d="M418.7,682.4c0-14.4,0-28.7,0-43.1c0-1.9-3-1.9-3,0c0,14.4,0,28.7,0,43.1
				C415.7,684.3,418.7,684.3,418.7,682.4L418.7,682.4z"/>
		</g>
	</g>
	<g>
		<g>
			<path class="st0" d="M452.9,683.4c0,15.7,0,31.3,0,47c0,1.9,3,1.9,3,0c0-15.7,0-31.3,0-47C455.9,681.5,452.9,681.5,452.9,683.4
				L452.9,683.4z"/>
		</g>
	</g>
	<g>
		<g>
			<path class="st0" d="M400.6,736.8c28.7,0,57.5,0,86.2,0c1.9,0,1.9-3,0-3c-28.7,0-57.5,0-86.2,0
				C398.6,733.8,398.6,736.8,400.6,736.8L400.6,736.8z"/>
		</g>
	</g>
</g>
<g id="Layer_14">
	<path class="st1" d="M356.3,1024.2c-17.7-2-38.7-2.1-39.3,1.5c-0.9,4.7,34.3,14,33.4,18.2c-1,4.4-38.8-5.7-43.8,4.5
		c-4.2,8.5,14.8,30.6,38.2,40.8c14,6.2,33.1,5.2,70.5,3c45.3-2.7,53.4-7.2,54.9-12.6c1.2-4.4-1.9-9.3-5.2-13
		C419.5,1036.2,381.6,1027.1,356.3,1024.2z"/>
	<path class="st2" d="M360.3,1041.4c-21.1,1.9-38.2,7.6-49.9,12.5c5.5,3.2,12.7,6.5,21.5,8.7c22.4,5.6,41.4,0.4,50.6-2.8
		c0.1,2.2,0.2,4.4,0.3,6.6c-34.1,4.9-41.2,8.9-41.2,11.8c0,5.1,22.6,9.4,32.2,10.7c7.2,1,18,2.4,31.5,0c11.6-2.1,13.6-4.8,29.8-10
		c24.3-7.8,33-5.8,33.6-9C470.1,1061.7,417.7,1036.1,360.3,1041.4z"/>
	<path class="st3" d="M347.6,956.8c-1.1,0.2-6,1.3-9.5,5.9c-3.6,4.8-3.1,10.1-3,11.2c-3.5,1.4-7,2.8-10.5,4.3
		c-0.3,1-1.8,6.5,1.3,12.2c2.8,5,7.4,6.8,8.5,7.2c1,1.4,2,2.8,3,4.3c3.7,0.9,10.7,2.1,19.1,0.3c9.9-2.1,16.5-7.3,19.4-9.9
		c0.7-1.7,4.6-11.8-0.3-22.7c-4.2-9.3-12-13.2-14.1-14.1c-0.2-4.8-0.4-9.6-0.7-14.5C356.3,946.3,351.9,951.6,347.6,956.8z"/>
	<path class="st3" d="M343.3,1009.1c-3.8,3.3-3.9,9.7-3.9,14.5c-0.1,8.5,2.9,11.5,0.7,14.8c-1.7,2.5-5.3,2.9-12.5,3.6
		c-11.9,1.1-16.5-1-20.4,2.3c-1.4,1.2-3.1,3.4-3.6,8.2c9.8,3.7,23.4,7.3,39.8,7.6c6.1,0.1,11.7-0.3,16.8-1
		c5.6-2.1,11.2-4.2,16.8-6.2c-0.5,4.6-1.1,9.2-1.6,13.8c-4.8,0.9-11.6,2.4-19.7,4.6c-11,3-16.5,4.4-16.4,5.9
		c0.1,3.9,26.6,6.7,40.8,7.6c10.1,0.6,18.4,0.5,24,0.3c1.1-3.7,2.2-7.5,3.3-11.2c1.5-0.4,3.9-1,6.9-1.3c12.8-1.5,18.8,2.6,27.3,1.6
		c4.3-0.5,10.4-2.5,17.4-9.5c1.2,0.6,8.6,4.4,9.5,11.5c1.2,8.4-7.5,14.8-8.9,15.8c-8.3,6.1-14,2.3-32.2,8.2
		c-10.7,3.4-13.4,6.3-14.5,9.2c-1.4,3.8-0.3,8.5,2.3,11.5c4.7,5.4,14.1,5.3,15.8,2.3c1.8-3-5.2-7.5-3.6-11.8c1-2.7,4.8-3.6,20.4-5.9
		c15.6-2.3,17.9-2.3,22-4.6c2.3-1.3,10-5.6,12.2-14.1c1.6-6-0.3-11.4-1-13.2c-1.3-3.5-2.3-3.8-7.9-12.2c-3.8-5.7-5.8-8.6-6.9-11.5
		c-2.6-6.6-1.3-10.4-2-14.8c-1.8-11.9-16.8-21.5-28.6-24.7c-18.7-5-28.8,6.6-40.8-1.6c-7-4.8-7.5-11.4-13.5-11.8
		c-6.6-0.5-8,7.5-18.1,10.5C353.4,1010.4,348.1,1004.9,343.3,1009.1z"/>
	<path class="st3" d="M348.5,1025.6c-5.4,5.2-13.7,3.9-17.8,3.3c-5.7-0.9-13-3.5-12.8-5.6c0.1-0.9,1.7-1.6,13.5-3.6
		c17.3-3,19.6-2.7,20.4-1.3C352.9,1020.3,350.3,1023.9,348.5,1025.6z"/>
	<path class="st4" d="M337.9,1002.1c0.9,2.5,1.8,5.1,2.7,7.6c4.4,0.6,12.8,1.2,22.3-1.9c7.3-2.4,12.5-6.1,15.7-8.7
		c-0.6-3.1-1.3-6.2-1.9-9.2c-2.8,2.8-8.6,7.7-17.4,10.6C350,1003.6,341.9,1002.8,337.9,1002.1z"/>
</g>
<g id="details">
	<g>
		<g>
			<path class="st3" d="M261.7,353.4c-4,4.6-7.5,9.6-10.5,15c-0.9,1.7,1.7,3.2,2.6,1.5c2.8-5.2,6.2-9.9,10-14.4
				C265.1,354.1,263,352,261.7,353.4L261.7,353.4z"/>
		</g>
	</g>
	<g>
		<g>
			<path class="st3" d="M238.6,394.4c-2.7,5.8-4.4,11.7-5.1,18.1c-0.2,1.9,2.8,1.9,3,0c0.7-5.8,2.3-11.3,4.7-16.5
				C242,394.1,239.5,392.6,238.6,394.4L238.6,394.4z"/>
		</g>
	</g>
	<g>
		<g>
			<path class="st3" d="M233.9,443.2c-0.5,9,1.2,17.6,4.9,25.7c0.8,1.8,3.4,0.2,2.6-1.5c-3.5-7.7-5-15.8-4.5-24.2
				C237,441.3,234,441.3,233.9,443.2L233.9,443.2z"/>
		</g>
	</g>
	<g>
		<g>
			<path class="st3" d="M251.8,488.9c3.3,7.8,8.4,14.2,15.2,19.1c1.6,1.1,3.1-1.5,1.5-2.6c-6.2-4.4-10.9-10.3-13.9-17.3
				C254,486.4,251.1,487.1,251.8,488.9L251.8,488.9z"/>
		</g>
	</g>
	<g>
		<g>
			<path class="st3" d="M293.9,522.6c2.6,1.6,5.2,3.1,7.8,4.7c1.7,1,3.2-1.6,1.5-2.6c-2.6-1.6-5.2-3.1-7.8-4.7
				C293.8,519,292.3,521.6,293.9,522.6L293.9,522.6z"/>
		</g>
	</g>
	<g>
		<g>
			<path class="st3" d="M292.4,541c2.2,11.7,5.9,22.8,11,33.6c0.8,1.7,3.4,0.2,2.6-1.5c-5-10.5-8.5-21.4-10.7-32.8
				C294.9,538.3,292,539.1,292.4,541L292.4,541z"/>
		</g>
	</g>
	<g>
		<g>
			<path class="st3" d="M295.6,540.6c13.5-7.4,27.4-14.1,41.9-19.4c1.5-0.6,3.1-1.3,4.7-1.6c0.5-0.1,1.1-0.3,1.6-0.4
				c2.6-0.3,4.2,0.6,4.8,2.7c2.2,2.9,3.4,7.5,4.7,10.9c2.5,7,4.2,14.3,5.1,21.8c0.2,1.9,3.2,1.9,3,0c-1.1-8.9-3.2-17.5-6.4-25.8
				c-1.9-4.9-3.7-13.2-10.1-12.8c-3.9,0.3-7.8,2.2-11.4,3.5c-4.2,1.6-8.3,3.4-12.5,5.2c-9.1,4-18.1,8.5-26.8,13.3
				C292.4,538.9,293.9,541.5,295.6,540.6L295.6,540.6z"/>
		</g>
	</g>
	<g>
		<g>
			<path class="st3" d="M322.4,551.9c-2.8-1.9-1.8-6.4-0.2-8.7c1.9-2.7,5.7-3.2,8.2-1.1c2.6,2.1,2.4,6.3,0.3,8.7
				c-2.5,2.8-6.9,2.5-9.7,0.2c-1.5-1.2-3.6,0.9-2.1,2.1c3.9,3.3,10.2,3.8,13.9-0.2c3.4-3.6,3.5-10-0.6-13.2
				c-3.9-3.1-9.6-2.4-12.4,1.6c-2.8,3.9-3.4,10.2,1.1,13.1C322.5,555.6,324,553,322.4,551.9L322.4,551.9z"/>
		</g>
	</g>
	<g>
		<g>
			<path class="st3" d="M306.1,577.1c17.7-7.1,35.4-14,53.2-20.8c1.8-0.7,1-3.6-0.8-2.9c-17.8,6.8-35.5,13.7-53.2,20.8
				C303.5,574.9,304.3,577.8,306.1,577.1L306.1,577.1z"/>
		</g>
	</g>
	<g>
		<g>
			<path class="st3" d="M334.7,573.9c2.3,5.2,5.6,9.8,9.7,13.8c1.4,1.3,3.5-0.8,2.1-2.1c-3.9-3.8-7-8.2-9.2-13.2
				C336.5,570.7,333.9,572.2,334.7,573.9L334.7,573.9z"/>
		</g>
	</g>
	<g>
		<g>
			<path class="st3" d="M364.6,603.2c8.5,5.5,18.1,7.9,28.2,7.1c1.9-0.2,1.9-3.2,0-3c-9.6,0.8-18.6-1.4-26.7-6.7
				C364.5,599.5,363,602.1,364.6,603.2L364.6,603.2z"/>
		</g>
	</g>
	<g>
		<g>
			<path class="st3" d="M417,610c6.8-0.6,13.3-2.1,19.6-4.6c1.8-0.7,1-3.6-0.8-2.9c-6,2.4-12.3,4-18.8,4.5
				C415.1,607.1,415.1,610.1,417,610L417,610z"/>
		</g>
	</g>
	<g>
		<g>
			<path class="st3" d="M464.7,591c9.4-4.5,16.8-12.1,21-21.7c0.8-1.7-1.8-3.3-2.6-1.5c-4,9.1-10.9,16.3-19.9,20.6
				C461.5,589.3,463,591.9,464.7,591L464.7,591z"/>
		</g>
	</g>
	<g>
		<g>
			<path class="st3" d="M501.9,539.7c4.3-8.9,9.5-17.3,15.5-25.2c1.2-1.5-1.4-3-2.6-1.5c-6,7.9-11.2,16.3-15.5,25.2
				C498.4,539.9,501,541.4,501.9,539.7L501.9,539.7z"/>
		</g>
	</g>
	<g>
		<g>
			<path class="st3" d="M539.4,494c7.9-2.4,16.6-4.7,24.2-0.2c1.7,1,3.2-1.6,1.5-2.6c-8.3-5-17.8-2.7-26.5-0.1
				C536.8,491.6,537.5,494.5,539.4,494L539.4,494z"/>
		</g>
	</g>
	<g>
		<g>
			<path class="st3" d="M581.3,501.6c2.1,1.3,3.7,3.2,4.5,5.5c0.6,1.8,3.5,1,2.9-0.8c-1-3.1-3.1-5.6-5.9-7.3
				C581.1,498.1,579.6,500.6,581.3,501.6L581.3,501.6z"/>
		</g>
	</g>
	<g>
		<g>
			<path class="st3" d="M463.5,522.2c-2.3-0.6-3.8-3.1-3.1-5.4c0.8-2.7,4.2-4.1,6.8-3.6c3.5,0.7,4.2,4.2,2.2,6.8
				c-1.8,2.4-5.2,3.1-8,3.7c-1.9,0.3-1.1,3.2,0.8,2.9c4.6-0.8,9.8-2.7,11.1-7.8c1.1-4.5-1.9-8.3-6.4-8.6c-4-0.3-8.4,2.1-9.4,6.2
				c-0.9,3.8,1.4,7.9,5.2,8.8C464.6,525.5,465.4,522.6,463.5,522.2L463.5,522.2z"/>
		</g>
	</g>
	<g>
		<g>
			<path class="st3" d="M395,517c11.5-7,26-17,40-15.6c1.9,0.2,1.9-2.8,0-3c-14.6-1.5-29.6,8.7-41.5,16
				C391.9,515.4,393.4,518,395,517L395,517z"/>
		</g>
	</g>
	<g>
		<g>
			<path class="st3" d="M412.4,487.5c8.4-1.8,16.8-0.7,24.5,3.1c1.7,0.9,3.2-1.7,1.5-2.6c-8.5-4.2-17.5-5.3-26.8-3.4
				C409.7,485,410.5,487.8,412.4,487.5L412.4,487.5z"/>
		</g>
	</g>
	<g>
		<g>
			<path class="st3" d="M426.8,445.1c10.9,7.5,23.1,16.1,24.8,30.4c0.2,1.9,3.2,1.9,3,0c-1.9-15.4-14.3-24.8-26.3-33
				C426.7,441.4,425.2,444,426.8,445.1L426.8,445.1z"/>
		</g>
	</g>
	<g>
		<g>
			<path class="st3" d="M409.3,340.2c-9.9,8.7-18.8,18.4-27.5,28.3c-7.3,8.4-15.8,16.8-18.5,27.9c-0.5,1.9,2.4,2.7,2.9,0.8
				c2.9-11.6,12.5-20.6,20.2-29.3c7.9-9,16.1-17.6,25.1-25.5C412.8,341.1,410.7,339,409.3,340.2L409.3,340.2z"/>
		</g>
	</g>
	<g>
		<g>
			<path class="st3" d="M363.4,398.3c15,6.9,28,16.8,38.6,29.5c1.2,1.5,3.4-0.6,2.1-2.1c-10.7-12.8-24-23-39.2-30
				C363.1,394.9,361.6,397.5,363.4,398.3L363.4,398.3z"/>
		</g>
	</g>
	<g>
		<g>
			<path class="st3" d="M405.4,428c8.3-9.4,15.5-19.8,22.2-30.4c6.4-10.2,13.8-20.8,17.8-32.2c0.6-1.8-2.3-2.6-2.9-0.8
				c-3.9,11.1-11.3,21.6-17.5,31.5c-6.5,10.5-13.5,20.6-21.7,29.8C402,427.3,404.1,429.4,405.4,428L405.4,428z"/>
		</g>
	</g>
	<g>
		<g>
			<path class="st3" d="M407,325.4c3.9,17.6,9.2,34.7,15.8,51.4c0.7,1.8,3.6,1,2.9-0.8c-6.7-16.7-12-33.9-15.8-51.4
				C409.5,322.8,406.6,323.5,407,325.4L407,325.4z"/>
		</g>
	</g>
	<g>
		<g>
			<path class="st3" d="M424.9,378.5c8.1-10,20.9-16.8,31.8-23.3c11.2-6.8,22.8-13,34.3-19.2c1.7-0.9,0.2-3.5-1.5-2.6
				c-12.1,6.5-24.2,13.1-35.9,20.2c-10.6,6.4-22.9,13.1-30.8,22.9C421.6,377.8,423.7,380,424.9,378.5L424.9,378.5z"/>
		</g>
	</g>
	<g>
		<g>
			<path class="st3" d="M409,326c11.7-6.2,23.4-12.5,35.1-18.6c11.7-6.1,23.7-11.7,36.9-13.3c1.9-0.2,1.9-3.2,0-3
				c-12.6,1.6-24.1,6.4-35.3,12.1c-12.8,6.5-25.5,13.5-38.2,20.2C405.7,324.3,407.3,326.9,409,326L409,326z"/>
		</g>
	</g>
	<g>
		<g>
			<path class="st3" d="M480.4,293.5c4.3,13.2,6.6,26.7,7.1,40.6c0.1,1.9,3.1,1.9,3,0c-0.4-14.1-2.8-28-7.2-41.4
				C482.7,290.8,479.8,291.6,480.4,293.5L480.4,293.5z"/>
		</g>
	</g>
	<g>
		<g>
			<path class="st3" d="M406.9,327.4c7.6,1.5,15.2,2.6,22.9,3.3c4.4,0.4,8.8,0.6,13.2,0.7c2.3,0,6.5,0.8,8.5-0.4
				c2.8-1.6,5.6-6.2,7.7-8.7c2.7-3.1,5.4-6.3,8.1-9.4c5.5-6.6,10.9-13.2,16.3-20c1.2-1.5-0.9-3.6-2.1-2.1
				c-9.3,11.7-18.8,23.2-28.7,34.4c-3,3.4-5.3,3.2-9.7,3.2c-3.8-0.1-7.6-0.2-11.4-0.5c-8.1-0.6-16.1-1.7-24-3.3
				C405.8,324.2,405,327.1,406.9,327.4L406.9,327.4z"/>
		</g>
	</g>
	<g>
		<g>
			<path class="st3" d="M366.9,398.1c14.5-5.6,28.4-12.3,41.9-19.9c1.7-1,0.2-3.5-1.5-2.6c-13.3,7.5-27,14.1-41.2,19.6
				C364.3,395.9,365.1,398.8,366.9,398.1L366.9,398.1z"/>
		</g>
	</g>
	<g>
		<g>
			<path class="st3" d="M411.9,345c-0.5,10.3-2,20.3-4.6,30.3c-0.5,1.9,2.4,2.7,2.9,0.8c2.7-10.2,4.3-20.6,4.7-31.1
				C415,343,412,343,411.9,345L411.9,345z"/>
		</g>
	</g>
	<g>
		<g>
			<path class="st3" d="M289.5,305.3c-0.7-9.6-12.7-10-16.8-2.3c-2.2,4.3-1.4,9.3,0.8,13.4c3.7,6.8,12.3,9.5,14.8,16.8
				c0.6,1.8,3.5,1,2.9-0.8c-2.1-6.1-6.8-8.2-11.2-12.4c-3.4-3.3-6.5-8.4-5.4-13.3c1.2-5.5,11.3-10.2,11.9-1.4
				C286.7,307.2,289.7,307.2,289.5,305.3L289.5,305.3z"/>
		</g>
	</g>
	<g>
		<g>
			<path class="st3" d="M289.8,304.6c0.2-3.2,0.9-6.3,2.5-9.2c0.9-1.6,2-3.1,3.3-4.5c2-2.1,2.4-2.7,5.3-1.3c2.6,1.3,2.8,1.6,2.9,4.3
				c0,1.5-0.2,3.1-0.5,4.6c-0.6,2.9-1.7,5.7-2.9,8.4c-4,8.7-9.6,16.6-10.7,26.3c-0.2,1.9,2.8,1.9,3,0c1-8.9,6.2-16.3,9.9-24.2
				c2.6-5.5,5.7-12.9,3.6-19.1c-1.6-4.8-6-6.4-10.1-3.4c-5.8,4.1-8.8,11.1-9.2,18C286.7,306.6,289.7,306.6,289.8,304.6L289.8,304.6z
				"/>
		</g>
	</g>
	<g>
		<g>
			<path class="st3" d="M477.6,175.9c22.6-18.8,56.7-11,69.1,15.6c5.7,12.3,7.6,26.6,8.6,40c1.1,13.1,0.7,26.4-1.9,39.2
				c-2.7,13.4-8.1,25.8-16.1,36.8c-7.2,9.9-15.9,19.3-19.5,31.3c-3.2,10.6-1.2,21.5,6.7,29.5c7.9,7.9,18.6,11.7,27.6,17.9
				c5.8,4,11.4,9.1,13.3,16.1c2.5,9.1-1.8,18.1-3.5,26.9c-2,10.5,0.8,24.7,13.7,25.6c1.9,0.1,1.9-2.9,0-3
				c-9.2-0.7-12.1-10.7-11.4-18.4c0.8-7.7,4.1-14.9,4.8-22.6c1-11.4-5.4-20-14.2-26.4c-9.8-7-22.3-10.8-30.2-20.4
				c-10.8-13.1-3.3-29.7,5.2-41.7c7.5-10.5,15.7-20.1,20.8-32.2c4.7-11.2,7.1-23.3,7.9-35.4c0.9-12.9-0.1-25.8-2.1-38.5
				c-2-12.7-5.1-25.7-13.2-36c-16.6-21.1-47.5-23.4-67.8-6.4C473.9,175,476.1,177.1,477.6,175.9L477.6,175.9z"/>
		</g>
	</g>
	<g>
		<g>
			<path class="st3" d="M442,230.5c-3.4,1.7-7.6-7.7-8.1-9.8c-1.1-4.6-0.3-9.3,2.1-13.3c4.5-7.2,16.3-13.6,24.5-8.9
				c8.5,4.8,8.3,18,3.4,25.2c-5.8,8.3-17.3,9.9-25.8,5c-1.7-1-3.2,1.6-1.5,2.6c10.3,6,24.4,3.4,30.6-7.3c5.5-9.4,3.8-26.1-8.4-29.4
				c-11.3-3.1-25,5.7-27.9,16.8c-1.4,5.2-0.6,10.9,2.1,15.5c1.9,3.2,6.2,8.4,10.3,6.3C445.2,232.2,443.7,229.6,442,230.5L442,230.5z
				"/>
		</g>
	</g>
	<g>
		<g>
			<path class="st3" d="M449.6,221.3c-2.3-1.4-3.9-3.8-3.8-6.5c0-3.1,3-5.3,5.9-3.8c2.4,1.3,3,4.7,1.9,7c-1,2.2-3.2,3.4-5.5,4
				c-1.9,0.5-1.1,3.4,0.8,2.9c3.9-1,7.5-3.9,8.1-8.1c0.6-3.8-1.5-8.1-5.4-9.1c-3.7-1-7.6,1.1-8.6,4.8c-1.2,4.5,1.3,9,5,11.3
				C449.8,224.9,451.3,222.3,449.6,221.3L449.6,221.3z"/>
		</g>
	</g>
	<g>
		<g>
			<path class="st3" d="M291,422.7c5.6-3.1,12.2-3.8,18.5-4.4c5.9-0.5,12.1-0.3,16.6,4c1.4,1.3,3.5-0.8,2.1-2.1
				c-4.8-4.5-11-5.3-17.3-4.9c-7.3,0.4-15,1.3-21.5,4.9C287.8,421.1,289.3,423.7,291,422.7L291,422.7z"/>
		</g>
	</g>
	<g>
		<g>
			<path class="st3" d="M309.4,404.7c5-0.7,9.6,1.3,12.8,5.1c1.2,1.5,3.3-0.6,2.1-2.1c-3.9-4.7-9.7-6.8-15.7-5.9
				C306.7,402.1,307.5,405,309.4,404.7L309.4,404.7z"/>
		</g>
	</g>
	<g>
		<g>
			<path class="st3" d="M335.3,338.6c-1.9-1.8-2.7-4.4-1.1-6.8c1.6-2.4,4.8-2.8,6.8-0.5c1.7,2,1.2,4.6-0.9,6
				c-1.8,1.2-4.3,1.4-6.4,1.1c-1.9-0.3-2.7,2.6-0.8,2.9c3.6,0.5,7.9,0.1,10.5-2.8c2.7-3,2-7.6-1.1-10.1c-3.2-2.6-7.6-1.8-10.1,1.3
				c-2.8,3.5-2,8,1.1,11C334.6,342,336.7,339.9,335.3,338.6L335.3,338.6z"/>
		</g>
	</g>
	<g>
		<g>
			<path class="st3" d="M442.6,362.5c-1.1,4.7-3,9-5.7,13c-1.1,1.6,1.5,3.1,2.6,1.5c2.9-4.2,4.9-8.8,6-13.8
				C445.9,361.4,443,360.6,442.6,362.5L442.6,362.5z"/>
		</g>
	</g>
	<g>
		<g>
			<path class="st3" d="M691.5,495.4c5.9,2.7,12.5,2.4,18.1-1.1c1.6-1,0.1-3.6-1.5-2.6c-4.6,2.9-10.1,3.4-15.1,1.1
				C691.3,492,689.8,494.6,691.5,495.4L691.5,495.4z"/>
		</g>
	</g>
	<g>
		<g>
			<path class="st3" d="M717.4,483c4.4-5.5,0.6-13.7,5.1-18.8c1.3-1.4-0.8-3.6-2.1-2.1c-4.9,5.4-0.8,13.4-5.1,18.8
				C714.1,482.4,716.2,484.5,717.4,483L717.4,483z"/>
		</g>
	</g>
	<g>
		<g>
			<path class="st3" d="M729.7,450.5c2.4-4.5,6-7.9,10.5-10.1c1.7-0.8,0.2-3.4-1.5-2.6c-5,2.4-9,6.3-11.6,11.2
				C726.2,450.7,728.8,452.2,729.7,450.5L729.7,450.5z"/>
		</g>
	</g>
	<g>
		<g>
			<path class="st3" d="M757,429.3c5.4-1,10.2-3.4,14.3-7c1.4-1.3-0.7-3.4-2.1-2.1c-3.7,3.3-8.1,5.4-12.9,6.3
				C754.3,426.7,755.1,429.6,757,429.3L757,429.3z"/>
		</g>
	</g>
	<g>
		<g>
			<path class="st3" d="M772.6,393c2.1,3.1,2.7,6.7,1.8,10.4c-0.5,1.9,2.4,2.7,2.9,0.8c1.1-4.4,0.4-8.9-2.1-12.7
				C774.1,389.9,771.5,391.4,772.6,393L772.6,393z"/>
		</g>
	</g>
	<g>
		<g>
			<path class="st3" d="M773.6,349.2c-4.8,3.2-8.1,8.1-9,13.9c-0.3,1.9,2.6,2.7,2.9,0.8c0.8-5,3.5-9.3,7.7-12.1
				C776.8,350.7,775.3,348.1,773.6,349.2L773.6,349.2z"/>
		</g>
	</g>
	<g>
		<g>
			<path class="st3" d="M758.6,334.5c2.1-0.1,4.1-0.3,6.2-0.4c1.5-0.1,4.3-0.9,5.7-0.4c1.8,0.6,2.6,3.9,3.2,5.4
				c1,2.2,1.9,4.4,2.9,6.6c0.8,1.8,3.3,0.2,2.6-1.5c-1.1-2.7-2.3-5.3-3.4-8c-0.8-1.8-1.3-4.1-3.2-5c-1.5-0.8-3.4-0.4-5-0.3
				c-3,0.2-6,0.4-8.9,0.6C756.6,331.6,756.6,334.6,758.6,334.5L758.6,334.5z"/>
		</g>
	</g>
	<g>
		<g>
			<path class="st3" d="M779,344.7c1.2-2.8,2.2-6.8,4-9.2c2.4-3.1,8.1-1,11.5-0.4c3.3,0.5,17,3.7,18.7,0.2c0.7-0.2,1.4-0.4,2.1-0.5
				c-0.1-0.1-0.3-0.1-0.4-0.2c0.2,0.6,0.5,1.1,0.7,1.7c0-0.1,0.1-0.3,0.1-0.4c0.6-1.8-2.3-2.6-2.9-0.8c0,0.1-0.1,0.3-0.1,0.4
				c-0.2,0.6,0.1,1.4,0.7,1.7c0.1,0.1,0.3,0.1,0.4,0.2c0.7,0.3,1.7,0.2,2.1-0.5c0.9-1.9-0.2-3-2.1-3.3c-2.4-0.4-5.3,0.1-7.8,0
				c-3.6-0.2-7.1-0.7-10.6-1.2c-3.3-0.5-9.4-3.1-12.6-1.4c-3.3,1.8-4.9,9.1-6.3,12.3C775.6,344.9,778.2,346.4,779,344.7L779,344.7z"
				/>
		</g>
	</g>
	<g>
		<g>
			<path class="st3" d="M759.2,333.2c19.6-13.8,39.9-26.3,61-37.6c-0.7-0.6-1.5-1.1-2.2-1.7c-1.9,13.3-4.3,26.6-7.2,39.7
				c-0.4,1.9,2.5,2.7,2.9,0.8c2.9-13.2,5.2-26.4,7.2-39.7c0.2-1.3-1-2.4-2.2-1.7c-21.1,11.3-41.5,23.8-61,37.6
				C756.1,331.7,757.6,334.3,759.2,333.2L759.2,333.2z"/>
		</g>
	</g>
	<g>
		<g>
			<path class="st3" d="M773.2,332.7c9.2-7.4,18.9-14.2,28.9-20.6c1.6-1,0.1-3.6-1.5-2.6c-10.2,6.4-20.1,13.5-29.5,21
				C769.5,331.8,771.7,333.9,773.2,332.7L773.2,332.7z"/>
		</g>
	</g>
	<g>
		<g>
			<path class="st0" d="M389.1,962.4c88.2,7.9,176.4-3.6,264.5-5.5c25.1-0.5,50.1-0.2,75.1,1.5c1.9,0.1,1.9-2.9,0-3
				c-88.3-6-176.4,6-264.6,6.8c-25,0.2-50.1-0.5-75-2.8C387.1,959.2,387.2,962.2,389.1,962.4L389.1,962.4z"/>
		</g>
	</g>
	<g>
		<g>
			<path class="st0" d="M619.1,947.1c72-3.9,144.2-5,216.3-3.4c1.9,0,1.9-3,0-3c-72.1-1.6-144.3-0.5-216.3,3.4
				C617.2,944.2,617.2,947.2,619.1,947.1L619.1,947.1z"/>
		</g>
	</g>
	<g>
		<g>
			<path class="st0" d="M704.2,888c67.9-5.5,136-8.8,204.2-10c1.9,0,1.9-3,0-3c-68.2,1.1-136.3,4.5-204.2,10
				C702.3,885.2,702.3,888.2,704.2,888L704.2,888z"/>
		</g>
	</g>
	<g>
		<g>
			<path class="st0" d="M986.9,929.1c68-0.4,136.1-0.8,204.1-1.2c1.9,0,1.9-3,0-3c-68,0.4-136.1,0.8-204.1,1.2
				C984.9,926.2,984.9,929.2,986.9,929.1L986.9,929.1z"/>
		</g>
	</g>
	<g>
		<g>
			<path class="st0" d="M1381.7,926.3c62.6,0,125.3,0,187.9,0c1.9,0,1.9-3,0-3c-62.6,0-125.3,0-187.9,0
				C1379.7,923.3,1379.7,926.3,1381.7,926.3L1381.7,926.3z"/>
		</g>
	</g>
	<g>
		<g>
			<path class="st0" d="M1196.4,1039.8c32.9,0,65.8,0,98.7,0c1.9,0,1.9-3,0-3c-32.9,0-65.8,0-98.7,0
				C1194.5,1036.8,1194.5,1039.8,1196.4,1039.8L1196.4,1039.8z"/>
		</g>
	</g>
	<g>
		<g>
			<path class="st0" d="M1316.8,1046.6c46,0,91.9,0,137.9,0c1.9,0,1.9-3,0-3c-46,0-91.9,0-137.9,0
				C1314.8,1043.6,1314.8,1046.6,1316.8,1046.6L1316.8,1046.6z"/>
		</g>
	</g>
	<g>
		<g>
			<path class="st0" d="M1272.1,1062.8c29.3,0,58.6,0,87.9,0c1.9,0,1.9-3,0-3c-29.3,0-58.6,0-87.9,0
				C1270.2,1059.8,1270.2,1062.8,1272.1,1062.8L1272.1,1062.8z"/>
		</g>
	</g>
	<g>
		<g>
			<path class="st0" d="M1239.7,1084.5c51.8,0,103.7,0,155.5,0c1.9,0,1.9-3,0-3c-51.8,0-103.7,0-155.5,0
				C1237.8,1081.5,1237.8,1084.5,1239.7,1084.5L1239.7,1084.5z"/>
		</g>
	</g>
	<g>
		<g>
			<path class="st0" d="M1384.4,964.1c49.6,0,99.2,0,148.7,0c1.9,0,1.9-3,0-3c-49.6,0-99.2,0-148.7,0
				C1382.4,961.1,1382.4,964.1,1384.4,964.1L1384.4,964.1z"/>
		</g>
	</g>
</g>
<g id="Layer_13">
	<path class="st5" d="M958.2,855c1.5,20.6,3.8,43.3,7.5,67.7c5,33,11.3,61.9,17.7,86.3c-1.8,2.4-6.9,8.9-14.7,9.8
		c-4.9,0.6-8.7-1.3-10.9-2.6c-3.3-17.8-6.5-36.4-9.5-55.8c-6.1-39.8-10.5-77.7-13.7-113.2C942.4,849.9,950.3,852.5,958.2,855z"/>
	<path class="st5" d="M1169.3,802.3c-1.6,31.3-4.1,65.9-8,103.1c-5.5,52.7-12.4,98.6-19.4,136.9c0.9,2.1,6,13.9,14.1,13.1
		c7-0.6,11.6-10.3,12.8-12.8c2.4-26.3,4.8-52.9,7.2-79.6c5.1-58.2,9.9-115.6,14.4-172.3C1183.3,794.6,1176.3,798.5,1169.3,802.3z"/>
	<path class="st5" d="M1012.9,760.6c2.1,32.8,4.6,66.7,7.5,101.5c4.2,50.5,8.8,98.5,13.8,144c-2.1,2.9-6.4,8-12.2,8.8
		c-4.9,0.7-8.7-2-10.9-3.9c-2.7-30.5-5.4-61.3-8.1-92.3c-4.9-57.2-9.4-113.8-13.7-169.6C997.2,752.9,1005,756.7,1012.9,760.6z"/>
	<path class="st5" d="M1142.6,755.6c-2.5,30.5-4.7,62.3-6.6,95.5c-2.7,45.7-4.5,89.3-5.6,130.7c1.5,2.2,5.3,7,10.5,7.4
		c5.6,0.5,9.8-4.4,11.3-6.5c-0.9-23.9-1.3-50.2-0.8-78.5c1.1-62.8,6.3-116.8,12.1-159.6C1156.6,748.4,1149.6,752,1142.6,755.6z"/>
	<path class="st6" d="M1306,358.2c16.1,36.6,3.7,77.2-26.5,177.8c-14.5,48.4-41.1,137.3-78.6,264c-36.8,17.1-97.9,38.3-173.4,31.6
		c-43.8-3.8-80.6-16-108.5-28.4c-4.2-9.6-18.5-45-7.7-79.6c6-19.1,18-32.8,43.6-49.1c25.2-16,69.6-38.4,134.1-42.5
		c-25.3-160.8,18.1-292.4,85.4-322.9C1218.6,289.2,1283.9,307.9,1306,358.2z"/>
	<g>
		<g>
			<path class="st5" d="M1300.1,371.7c-29.6,31.1-51.5,69.3-58.7,111.9c-3.2,18.9-3.7,38.2-4.8,57.3c-1.5,24.3-4.4,48.4-9.9,72.2
				c-5.8,25.1-14.1,49.7-24.6,73.3c-0.8,1.7,1.8,3.3,2.6,1.5c18.7-42,30.2-86.9,34-132.8c1.6-19.7,1.8-39.5,4.1-59.1
				c2.3-20,7.4-39.4,15.6-57.8c10.6-24,25.9-45.5,44-64.4C1303.5,372.4,1301.4,370.3,1300.1,371.7L1300.1,371.7z"/>
		</g>
	</g>
	<g>
		<g>
			<path class="st5" d="M919.2,777.2c59.9,28.2,127.6,37.4,192.7,24.7c18.9-3.7,37.3-9.2,55.2-16.2c1.8-0.7,1-3.6-0.8-2.9
				c-61.1,24.1-128.8,28.4-192.3,11.4c-18.3-4.9-36.1-11.5-53.2-19.6C919,773.8,917.4,776.4,919.2,777.2L919.2,777.2z"/>
		</g>
	</g>
	<g>
		<g>
			<path class="st5" d="M1127.4,655.6c26,14.1,46.5,36.7,57.7,64.1c0.7,1.8,3.6,1,2.9-0.8c-11.5-28.1-32.4-51.5-59.1-65.9
				C1127.2,652.1,1125.7,654.7,1127.4,655.6L1127.4,655.6z"/>
		</g>
	</g>
</g>
<g id="leg_r">
	<path class="st3" d="M826.1,983.7c1.9,8.4-3.2,10.6-6.1,25c-1.9,9.5,0.1,10.2,0,39.9c0,15.9-0.6,18.9-2.7,22.3
		c-3.5,5.6-7.8,6.5-21.6,14.2c-14.7,8.2-12.9,8.8-22.3,13.5c-7.4,3.8-30.1,15.2-35.2,9.5c-4.4-5,6.1-21.1,16.2-36.5
		c9.2-14.1,18.1-24.8,24.3-31.8c-2.4-8.8-5.5-25.5,0.7-43.9c2.4-7.2,10.2-30.7,25-31.1C814,964.5,823.9,974,826.1,983.7z"/>
	<path class="st4" d="M992.4,624.8c-27,11.7-44.5,27.1-50.6,32.6c-22.7,20.4-50.3,50.4-91.6,117c-35.6,57.5-56,90.8-69.9,142.3
		c-7.3,27-10.5,50.1-12.1,66.3c5.9,2.6,12.7,5.2,20.5,7.2c17.7,4.6,33.3,4.6,44.6,3.6c2.7-19.5,8.6-50.3,22.9-85.6
		c9.3-23,39.2-94.5,108.5-151.9c31.1-25.7,49.9-31.9,72.3-63.9c15.5-22.1,37.1-62.9,24.1-77.2C1048,600.7,1005.3,619.2,992.4,624.8z
		"/>
	<path class="st7" d="M991.4,703.7c-31.5,25.5-55.6,49.2-72.4,67.2c-39,41.6-80.2,86.4-104.6,155.1c-9.5,26.8-14,50.1-16.2,66.1
		c11,0.4,22.1,0.8,33.1,1.2c5-29.4,15.2-70.1,37.4-114.7c20.6-41.3,44.6-72.1,63.8-93.3C952.2,758.1,971.8,730.9,991.4,703.7z"/>
</g>
<g id="leg_l">
	<path class="st3" d="M941.7,982.3c-0.2,5.7,6.6,13.3,20.3,28.4c6.2,6.8,11.1,11.5,10.8,18.3c-0.1,3.7-1.7,5.9-5.4,11.5
		c0,0-3.2,4.8-15.5,25c-8.1,13.1-12,19.8-10.1,24.3c2.3,5.6,10.6,7.8,16.2,8.1c11.1,0.6,18.1-6.1,43.9-29.1
		c25-22.1,27.7-24,28.4-29.7c1.5-11.4-8-14.9-23.7-41.9c-14.2-24.4-12.9-32.7-22.3-36.5C968,954,942.1,969.5,941.7,982.3z"/>
	<path class="st4" d="M1125.4,624.6c3.3,12.2,6.4,30.8,2,52c-2.3,11.2-9.1,32.9-47,72.3c-50.9,52.9-75.5,50-90.4,86.8
		c-9,22.1-8.7,44.2-8.4,59.1c0.4,29.3,7.5,52.7,13.3,67.5c-5.2,5.7-14.2,14.2-27.7,20.5c-7.5,3.5-18.6,8.7-27.7,7.2
		c-21.9-3.5-35-44.9-38.6-73.5c-8.2-64.6,24.8-119,43.4-149.5c6.8-11.1,1.3-0.6,60.3-78.4c20.8-27.4,29.1-39.3,45.8-49.4
		C1077.5,622.7,1107,622.8,1125.4,624.6z"/>
	<g>
		<g>
			<path class="st8" d="M995.8,699.7c0-1,0-2,0-3c-1,0.1-2,0.3-2.9,0.4c0.6,2.3,1.3,4.7,1.9,7c0.5,1.7,2.8,1.2,2.9-0.4
				c0.4-3.3,0.5-6.6,0.3-10c-1,0-2,0-3,0c0.2,2.7,0.7,5.1,1.6,7.6c0.6,1.6,2.8,1.3,2.9-0.4c0.3-3.6,0.4-7.2,0.2-10.8
				c-1,0.1-2,0.3-2.9,0.4c0.5,2.8,1.1,5.5,1.6,8.3c0.3,1.4,2.6,1.4,2.9,0c0.7-3.7,1-7.3,0.7-11c-1,0.1-2,0.3-2.9,0.4
				c0.8,2.5,1.6,5,2.4,7.5c0.5,1.6,2.9,1.3,2.9-0.4c0.1-3.7,0.3-7.3,0.4-11c-1,0.1-2,0.3-2.9,0.4c0.4,2.4,0.8,4.8,1.1,7.2
				c0.3,1.7,3,1.3,2.9-0.4c-0.2-3.4,0-6.6,0.5-10c-1,0-1.9,0-2.9,0c0.7,3,1.5,6,2.2,9c0.4,1.7,2.9,1.3,2.9-0.4
				c0.1-3.9,0.2-7.7,0.3-11.6c-1,0.1-2,0.3-2.9,0.4c0.6,2.5,1.2,5,1.8,7.6c0.4,1.6,3,1.3,2.9-0.4c-0.2-3.8,0.1-7.5,0.9-11.2
				c-1,0-1.9,0-2.9,0c0.6,3.2,1.1,6.5,1.7,9.7c0.3,1.4,2.6,1.4,2.9,0c0.8-4.3,1.2-8.5,1.2-12.9c-1,0.1-2,0.3-2.9,0.4
				c0.6,2.6,1.4,5.2,2.3,7.8c0.5,1.6,2.9,1.3,2.9-0.4c0.2-3.9,0.4-7.8,0.6-11.6c-1,0-2,0-3,0c0.3,3.1,0.6,6.2,1,9.3
				c0.2,1.9,3.1,2,3,0c-0.2-3.9,0.2-7.6,1.3-11.4c-1-0.1-2-0.3-2.9-0.4c0.4,3.4,0.8,6.8,1.2,10.2c0.2,1.5,2.7,2.2,2.9,0.4
				c0.6-4,0.9-7.9,0.8-11.9c-1,0-2,0-3,0c0.3,2.6,0.5,5.1,0.4,7.7c1,0,2,0,3,0c-0.2-3.7-0.1-7.3,0.5-11c-1,0-1.9,0-2.9,0
				c1,2.6,1.5,5.2,1.4,8c0,1.9,2.9,1.9,3,0c0.1-3.2,0.2-6.4,0.4-9.5c-1,0.1-2,0.3-2.9,0.4c0.8,2.2,1.2,4,1.4,6.4
				c0.1,1.9,2.9,1.9,3,0c0.1-2.9,0.3-5.8,0.4-8.8c-0.9,0.3-1.9,0.5-2.8,0.8c1,1.6,1.7,3.2,2.1,5.1c0.4,1.7,2.9,1.2,2.9-0.4
				c0.1-2.2,0.2-4.5,0.4-6.7c-1,0.1-2,0.3-2.9,0.4c0.5,1.4,1,2.9,1.5,4.3c0.5,1.4,2.5,1.5,2.9,0c1-3.4,2.6-3.5,5.4-5.2
				c1.6-1,0.1-3.6-1.5-2.6c-1.4,0.9-4,1.3-5.1,2.4c-1.1,1.1-1.2,3.2-1.6,4.6c1,0,1.9,0,2.9,0c-0.5-1.4-1-2.9-1.5-4.3
				c-0.6-1.6-2.9-1.3-2.9,0.4c-0.1,2.2-0.2,4.5-0.4,6.7c1-0.1,2-0.3,2.9-0.4c-0.5-2.2-1.2-3.9-2.4-5.8c-0.8-1.3-2.7-0.7-2.8,0.8
				c-0.1,2.9-0.3,5.8-0.4,8.8c1,0,2,0,3,0c-0.2-2.5-0.7-4.8-1.5-7.2c-0.6-1.6-2.9-1.3-2.9,0.4c-0.1,3.2-0.2,6.4-0.4,9.5c1,0,2,0,3,0
				c0.1-3.1-0.4-5.8-1.5-8.8c-0.5-1.2-2.7-1.6-2.9,0c-0.6,4-0.8,7.8-0.6,11.8c0.1,1.9,2.9,1.9,3,0c0.1-2.6,0-5.1-0.4-7.7
				c-0.2-1.9-3.1-2-3,0c0.1,3.8-0.1,7.4-0.7,11.1c1,0.1,2,0.3,2.9,0.4c-0.4-3.4-0.8-6.8-1.2-10.2c-0.2-1.6-2.4-2.1-2.9-0.4
				c-1.2,4-1.6,8-1.4,12.2c1,0,2,0,3,0c-0.3-3.1-0.6-6.2-1-9.3c-0.2-1.9-2.9-2-3,0c-0.2,3.9-0.4,7.8-0.6,11.6c1-0.1,2-0.3,2.9-0.4
				c-0.9-2.6-1.6-5.1-2.3-7.8c-0.4-1.6-3-1.3-2.9,0.4c0,4.1-0.3,8-1.1,12.1c1,0,1.9,0,2.9,0c-0.6-3.2-1.1-6.5-1.7-9.7
				c-0.3-1.5-2.6-1.4-2.9,0c-0.8,4-1.2,7.9-1,12c1-0.1,2-0.3,2.9-0.4c-0.6-2.5-1.2-5-1.8-7.6c-0.4-1.7-2.9-1.3-2.9,0.4
				c-0.1,3.9-0.2,7.7-0.3,11.6c1-0.1,2-0.3,2.9-0.4c-0.7-3-1.5-6-2.2-9c-0.3-1.4-2.6-1.5-2.9,0c-0.6,3.6-0.8,7.1-0.7,10.8
				c1-0.1,2-0.3,2.9-0.4c-0.4-2.4-0.8-4.8-1.1-7.2c-0.3-1.7-2.9-1.2-2.9,0.4c-0.1,3.7-0.3,7.3-0.4,11c1-0.1,2-0.3,2.9-0.4
				c-0.8-2.5-1.6-5-2.4-7.5c-0.5-1.5-3.1-1.4-2.9,0.4c0.3,3.5,0.1,6.8-0.6,10.2c1,0,1.9,0,2.9,0c-0.5-2.8-1.1-5.5-1.6-8.3
				c-0.3-1.7-3-1.3-2.9,0.4c0.2,3.6,0.1,7.2-0.2,10.8c1-0.1,2-0.3,2.9-0.4c-0.8-2.3-1.3-4.3-1.5-6.8c-0.2-1.9-3.1-1.9-3,0
				c0.2,3.4,0.1,6.7-0.3,10c1-0.1,2-0.3,2.9-0.4c-0.6-2.3-1.3-4.7-1.9-7c-0.4-1.6-2.9-1.3-2.9,0.4c0,1,0,2,0,3
				C992.8,701.6,995.8,701.6,995.8,699.7L995.8,699.7z"/>
		</g>
	</g>
	<path class="st9" d="M1085.5,645c-6.1,10.9-15.6,27.1-28.7,45.8c-43.5,62.2-66.9,66.9-88.8,111.3c-3.8,7.7-20.3,42.5-21.2,90.8
		c-0.7,40.7,10.1,72.7,17.8,90.8c9.8-6.8,19.6-13.7,29.4-20.5c-3-11.3-17.9-69-9.6-111.3c3.3-16.7,9.4-26.9,10.9-29.4
		c10.5-16.9,24.7-25.4,30.1-28.7c7.5-4.6,92.7-57.3,102.5-121.6c1.3-8.4,1.9-21.4-2.7-38.3c-5.3,2.2-11.2,4.3-17.8,6.1
		C1099.4,642.5,1092,644,1085.5,645z"/>
	<path class="st10" d="M1107,639.1c-0.2,13.1-2.1,32.8-12,53.2c-19.9,41.1-53.4,47.4-82.4,88.2c-10,14-22.2,36-28.6,68.7
		c2.9-10.3,8.7-25.1,21.2-38.4c6-6.4,11-9.7,21.2-17.2c0,0,14.9-11,40.1-31.5c17.3-14.1,54-44,61.3-88.2c2.6-15.5,0.9-29.5-1.7-40.6
		C1119.6,635.2,1113.3,637.1,1107,639.1z"/>
</g>
<g id="table">
	<path class="st4" d="M524.2,743.5c132.1-0.4,264.3-0.8,396.4-1.2c-6.5-18.2-13.5-36.7-20.9-55.4c-19.6-49.3-40.3-95.2-61.6-137.9
		c-67.7,0.4-135.4,0.8-203.1,1.2c-23,37.4-46.1,76.4-68.9,117C551.6,692.9,537.6,718.4,524.2,743.5z"/>
	<g>
		<g>
			<path class="st3" d="M524.9,750.2c102.9-0.1,205.8-0.1,308.7-0.2c29.2,0,58.4,0,87.6-0.1c5.8,0,5.8-9,0-9
				c-102.9,0.1-205.8,0.1-308.7,0.2c-29.2,0-58.4,0-87.6,0.1C519.1,741.2,519.1,750.2,524.9,750.2L524.9,750.2z"/>
		</g>
	</g>
	<g>
		<g>
			<path class="st3" d="M567.3,754.2c-0.2,88.3-0.5,176.6-0.7,264.9c-0.1,25-0.1,50-0.2,75c0,9.7,15,9.7,15,0
				c0.2-88.3,0.5-176.6,0.7-264.9c0.1-25,0.1-50,0.2-75C582.4,744.5,567.4,744.5,567.3,754.2L567.3,754.2z"/>
		</g>
	</g>
	<g>
		<g>
			<path class="st3" d="M639.6,754.2c0,52.2,0,104.4,0,156.5c0,9.7,15,9.7,15,0c0-52.2,0-104.4,0-156.5
				C654.6,744.5,639.6,744.5,639.6,754.2L639.6,754.2z"/>
		</g>
	</g>
	<g>
		<g>
			<path class="st3" d="M829.6,752.8c0,9.2,0,18.3,0,27.5c0,9.7,15,9.7,15,0c0-9.2,0-18.3,0-27.5
				C844.6,743.2,829.6,743.2,829.6,752.8L829.6,752.8z"/>
		</g>
	</g>
	<g>
		<g>
			<path class="st3" d="M630.7,547.8c-36.3,64.8-72.6,129.6-108.9,194.4c-1.9,3.4,3.3,6.4,5.2,3c36.3-64.8,72.6-129.6,108.9-194.4
				C637.8,547.5,632.6,544.5,630.7,547.8L630.7,547.8z"/>
		</g>
	</g>
	<g>
		<g>
			<path class="st3" d="M633.2,553.4c69.5,0,139.1,0,208.6,0c3.9,0,3.9-6,0-6c-69.5,0-139.1,0-208.6,0
				C629.3,547.4,629.3,553.4,633.2,553.4L633.2,553.4z"/>
		</g>
	</g>
	<g>
		<g>
			<path class="st3" d="M836.2,552.9c29.3,62.5,56.8,125.8,82.6,189.9c1.4,3.5,7.2,2,5.8-1.6c-26-64.5-53.7-128.3-83.2-191.3
				C839.8,546.4,834.6,549.5,836.2,552.9L836.2,552.9z"/>
		</g>
	</g>
	<g>
		<g>
			<path class="st3" d="M604.7,921.8c26.3,0,52.7,0,79,0c5.8,0,5.8-9,0-9c-26.3,0-52.7,0-79,0C598.9,912.8,598.9,921.8,604.7,921.8
				L604.7,921.8z"/>
		</g>
	</g>
	<g>
		<g>
			<path class="st3" d="M714.3,919.7c5.6,0,11.2,0,16.9,0c5.8,0,5.8-9,0-9c-5.6,0-11.2,0-16.9,0
				C708.5,910.7,708.4,919.7,714.3,919.7L714.3,919.7z"/>
		</g>
	</g>
	<g>
		<g>
			<path class="st3" d="M379.3,924c33.7,0,67.4,0,101.1,0c5.8,0,5.8-9,0-9c-33.7,0-67.4,0-101.1,0C373.5,915,373.5,924,379.3,924
				L379.3,924z"/>
		</g>
	</g>
	<g>
		<g>
			<path class="st3" d="M506.7,921.8c6.3,0,12.6,0,19,0c5.8,0,5.8-9,0-9c-6.3,0-12.6,0-19,0C500.9,912.8,500.9,921.8,506.7,921.8
				L506.7,921.8z"/>
		</g>
	</g>
	<g>
		<g>
			<path class="st3" d="M829.1,1110.4c56.9,0,113.8,0,170.7,0c5.8,0,5.8-9,0-9c-56.9,0-113.8,0-170.7,0
				C823.3,1101.4,823.3,1110.4,829.1,1110.4L829.1,1110.4z"/>
		</g>
	</g>
	<g>
		<g>
			<path class="st3" d="M1036.6,1108.3c18.6,0,37.2,0,55.8,0c5.8,0,5.8-9,0-9c-18.6,0-37.2,0-55.8,0
				C1030.8,1099.3,1030.8,1108.3,1036.6,1108.3L1036.6,1108.3z"/>
		</g>
	</g>
	<g>
		<g>
			<path class="st3" d="M1135.6,1105.1c5.8,0,5.8-9,0-9C1129.8,1096.1,1129.8,1105.1,1135.6,1105.1L1135.6,1105.1z"/>
		</g>
	</g>
	<g>
		<g>
			<path class="st3" d="M467.8,1105.1c40,0,80.1,0,120.1,0c5.8,0,5.8-9,0-9c-40,0-80.1,0-120.1,0
				C462,1096.1,462,1105.1,467.8,1105.1L467.8,1105.1z"/>
		</g>
	</g>
	<g>
		<g>
			<path class="st3" d="M619.4,1104.1c7,0,14,0,21.1,0c5.8,0,5.8-9,0-9c-7,0-14,0-21.1,0C613.7,1095.1,613.6,1104.1,619.4,1104.1
				L619.4,1104.1z"/>
		</g>
	</g>
	<path class="st11" d="M631.9,676.4c70.6,5.2,141.2,10.4,211.8,15.6c-8.5-43.5-17-87-25.5-130.5c-45.4,12-90.9,24.1-136.3,36.1
		C665.2,623.8,648.5,650.1,631.9,676.4z"/>
	<path class="st12" d="M560.3,710.2c10.5-8,33.2,1.1,33.6,8.5c0.2,4.8-9.2,10-17.3,10.5c-9.3,0.6-20.3-4.8-20.7-11.2
		C555.6,713.8,559.7,710.6,560.3,710.2z"/>
	<g>
		<g>
			<path class="st3" d="M882.9,751.5c0.1,91,0.2,181.9,0.3,272.9c0,25.7,0,51.3,0.1,77c0,9.7,15,9.7,15,0
				c-0.1-91-0.2-181.9-0.3-272.9c0-25.7,0-51.3-0.1-77C897.9,741.8,882.9,741.8,882.9,751.5L882.9,751.5z"/>
		</g>
	</g>
</g>
<g id="laptop">
	<path class="st4" d="M659.9,419.2c-31.7,41-63.3,82-95,123c22.6,44.4,45.2,88.9,67.9,133.3c20.8-40.7,41.5-81.4,62.3-122.2
		C683.3,508.6,671.6,463.9,659.9,419.2z"/>
	<path class="st4" d="M580.9,540.5c18.1,35.9,36.2,71.9,54.3,107.8c16.8-31.7,33.5-63.3,50.3-95c-9.8-35.9-19.7-71.9-29.5-107.8
		C630.9,477.2,605.9,508.9,580.9,540.5z"/>
	<path class="st4" d="M695.5,554.5c40.5,1,81.1,1.9,121.6,2.9c1.2,37.7,2.4,75.3,3.6,113c-62.1,1.9-124.2,3.8-186.4,5.8
		C654.7,635.6,675.1,595,695.5,554.5z"/>
	<g>
		<g>
			<path class="st3" d="M596.5,548.7c4.8,10.3,9.6,20.6,14.4,30.9c0.8,1.7,3.4,0.2,2.6-1.5c-4.8-10.3-9.6-20.6-14.4-30.9
				C598.3,545.4,595.7,547,596.5,548.7L596.5,548.7z"/>
		</g>
	</g>
	<g>
		<g>
			<path class="st3" d="M621.6,600.6c2.2,4.5,4.4,9.1,6.5,13.6c0.8,1.7,3.4,0.2,2.6-1.5c-2.2-4.5-4.4-9.1-6.5-13.6
				C623.3,597.3,620.7,598.8,621.6,600.6L621.6,600.6z"/>
		</g>
	</g>
	<g>
		<g>
			<path class="st3" d="M613.9,578.7c13.1-15.6,25.4-31.8,37-48.5c1.1-1.6-1.5-3.1-2.6-1.5c-11.4,16.5-23.6,32.5-36.5,47.9
				C610.6,578,612.7,580.2,613.9,578.7L613.9,578.7z"/>
		</g>
	</g>
	<g>
		<g>
			<path class="st3" d="M598.3,547.9c14.1-15,27.9-30.2,41.5-45.5c1.3-1.4-0.8-3.6-2.1-2.1c-13.6,15.4-27.4,30.6-41.5,45.5
				C594.9,547.2,597,549.4,598.3,547.9L598.3,547.9z"/>
		</g>
	</g>
	<g>
		<g>
			<path class="st3" d="M638.1,502.3c3.5,8.8,6.6,17.6,9.4,26.6c0.6,1.8,3.5,1.1,2.9-0.8c-2.8-9-5.9-17.9-9.4-26.6
				C640.2,499.7,637.3,500.5,638.1,502.3L638.1,502.3z"/>
		</g>
	</g>
	<g>
		<g>
			<path class="st3" d="M607.9,549.7c9.7-10.2,19.4-20.4,29.1-30.7c1.3-1.4-0.8-3.5-2.1-2.1c-9.7,10.2-19.4,20.4-29.1,30.7
				C604.5,549,606.6,551.1,607.9,549.7L607.9,549.7z"/>
		</g>
	</g>
	<g>
		<g>
			<path class="st3" d="M613.7,555.5c3.6-4.1,7.2-8.1,10.8-12.2c1.3-1.4-0.8-3.6-2.1-2.1c-3.6,4.1-7.2,8.1-10.8,12.2
				C610.3,554.8,612.5,556.9,613.7,555.5L613.7,555.5z"/>
		</g>
	</g>
	<g>
		<g>
			<path class="st3" d="M617,560.8c8.7-10.7,17.4-21.4,26-32.1c1.2-1.5-0.9-3.6-2.1-2.1c-8.7,10.7-17.4,21.4-26,32.1
				C613.6,560.2,615.7,562.3,617,560.8L617,560.8z"/>
		</g>
	</g>
	<g>
		<g>
			<path class="st3" d="M624.7,599c11-17.9,22.2-35.7,33.7-53.3c-0.9,0-1.7,0-2.6,0c2.3,5.1,4.7,10.1,7,15.2
				c0.8,1.8,3.4,0.2,2.6-1.5c-2.3-5.1-4.7-10.1-7-15.2c-0.5-1.1-2-0.9-2.6,0c-11.4,17.6-22.7,35.4-33.7,53.3
				C621,599.2,623.6,600.7,624.7,599L624.7,599z"/>
		</g>
	</g>
	<g>
		<g>
			<path class="st3" d="M632.4,613.7c10.8-17.9,21.7-35.7,32.5-53.6c1-1.7-1.6-3.2-2.6-1.5c-10.8,17.9-21.7,35.7-32.5,53.6
				C628.8,613.9,631.4,615.4,632.4,613.7L632.4,613.7z"/>
		</g>
	</g>
	<g>
		<g>
			<path class="st3" d="M631.2,601.3c6.1-9.4,12.4-18.8,18.9-28c1.1-1.6-1.5-3.1-2.6-1.5c-6.5,9.2-12.8,18.5-18.9,28
				C627.6,601.4,630.2,602.9,631.2,601.3L631.2,601.3z"/>
		</g>
	</g>
	<g>
		<g>
			<path class="st3" d="M717.9,564.9c-13.2,32.1-27,64.1-41.3,95.8c-0.8,1.7,1.8,3.3,2.6,1.5c14.4-31.9,28.2-64.1,41.6-96.5
				C721.5,564,718.6,563.2,717.9,564.9L717.9,564.9z"/>
		</g>
	</g>
	<g>
		<g>
			<path class="st3" d="M699.5,581.7c30.8,0,61.6,0,92.4,0c1.9,0,1.9-3,0-3c-30.8,0-61.6,0-92.4,0
				C697.6,578.7,697.6,581.7,699.5,581.7L699.5,581.7z"/>
		</g>
	</g>
	<g>
		<g>
			<path class="st3" d="M689.1,611.6c27.3,0.2,54.7,0.4,82,0.7c1.9,0,1.9-3,0-3c-27.3-0.2-54.7-0.4-82-0.7
				C687.1,608.6,687.1,611.6,689.1,611.6L689.1,611.6z"/>
		</g>
	</g>
	<g>
		<g>
			<path class="st3" d="M676.7,636.3c33.8,0,67.7,0,101.5,0c1.9,0,1.9-3,0-3c-33.8,0-67.7,0-101.5,0
				C674.8,633.3,674.8,636.3,676.7,636.3L676.7,636.3z"/>
		</g>
	</g>
	<g>
		<g>
			<path class="st3" d="M731.5,571.4c-11.9,28.3-23.2,56.8-33.9,85.6c-0.7,1.8,2.2,2.6,2.9,0.8c10.7-28.8,22-57.3,33.9-85.6
				C735.1,570.4,732.2,569.7,731.5,571.4L731.5,571.4z"/>
		</g>
	</g>
	<g>
		<g>
			<path class="st3" d="M748.8,570.5c-12.2,29-23.6,58.3-34.2,87.9c-0.6,1.8,2.2,2.6,2.9,0.8c10.5-29.4,21.8-58.4,33.9-87.2
				C752.1,570.3,749.5,568.7,748.8,570.5L748.8,570.5z"/>
		</g>
	</g>
	<g>
		<g>
			<path class="st3" d="M768.6,571.7c-12.4,29.4-23.8,59.2-34,89.5c-0.6,1.8,2.3,2.6,2.9,0.8c10.2-30,21.4-59.6,33.7-88.8
				C771.9,571.4,769.3,569.9,768.6,571.7L768.6,571.7z"/>
		</g>
	</g>
	<g>
		<g>
			<path class="st3" d="M783.4,570.7c-10,27.2-19,54.7-27.1,82.5c-0.5,1.9,2.4,2.7,2.9,0.8c8.1-27.8,17.1-55.3,27.1-82.5
				C787,569.7,784.1,568.9,783.4,570.7L783.4,570.7z"/>
		</g>
	</g>
	<g>
		<g>
			<path class="st3" d="M783.5,592c-2.5,9.5-5,19-7.5,28.5c-0.3,1,0.5,1.9,1.4,1.9c7.5,0.3,14.9,0.3,22.3-0.1c1.9-0.1,1.9-3.1,0-3
				c-7.5,0.4-14.9,0.4-22.3,0.1c0.5,0.6,1,1.3,1.4,1.9c2.5-9.5,5-19,7.5-28.5C786.9,591,784,590.2,783.5,592L783.5,592z"/>
		</g>
	</g>
	<g>
		<g>
			<path class="st3" d="M785.8,593.6c4.1-0.7,8.2-1.2,12.4-1.4c1.5-0.1,4-0.7,5.5-0.2c2-0.6,2.4-0.1,1.3,1.5c-0.2,1-0.4,1.9-0.6,2.9
				c-1.7,7.9-3.4,15.9-5.1,23.8c-0.4,1.9,2.5,2.7,2.9,0.8c1.2-5.7,2.4-11.4,3.7-17.1c0.7-3.2,1.4-6.3,2-9.5c0.2-1.1,0.9-2.9,0.3-4
				c-1.2-2.2-5.3-1.3-7.2-1.3c-5.4,0.2-10.7,0.8-15.9,1.7C783.1,591.1,783.9,594,785.8,593.6L785.8,593.6z"/>
		</g>
	</g>
	<g>
		<g>
			<path class="st3" d="M797.5,592.1c-2.2,9.5-4.1,19.1-5.7,28.7c-0.3,1.9,2.6,2.7,2.9,0.8c1.6-9.6,3.5-19.2,5.7-28.7
				C800.8,591,797.9,590.2,797.5,592.1L797.5,592.1z"/>
		</g>
	</g>
	<g>
		<g>
			<path class="st3" d="M797.1,608.4c2,0,3.9,0,5.9,0c1.9,0,1.9-3,0-3c-2,0-3.9,0-5.9,0C795.2,605.4,795.2,608.4,797.1,608.4
				L797.1,608.4z"/>
		</g>
	</g>
	<g>
		<g>
			<path class="st3" d="M634.6,677.4c61.6-4.3,123.4-5.7,185.2-4.3c1.9,0,1.9-3,0-3c-61.8-1.4-123.6,0-185.2,4.3
				C632.7,674.5,632.7,677.5,634.6,677.4L634.6,677.4z"/>
		</g>
	</g>
	<g>
		<g>
			<path class="st3" d="M636.3,676.9c30.7-4.6,61.5-6.3,92.5-6.1c30.8,0.2,61.5,1.7,92.3-0.2c1.9-0.1,1.9-3.1,0-3
				c-31.4,1.9-62.8,0.4-94.3,0.2c-30.6-0.2-61,1.7-91.3,6.2C633.6,674.3,634.4,677.2,636.3,676.9L636.3,676.9z"/>
		</g>
	</g>
	<g>
		<g>
			<path class="st3" d="M565.3,544.1c7.8,8.3,12,20.3,16.9,30.4c5.5,11.2,10.9,22.4,16.4,33.6c10.9,22.4,21.9,44.8,32.8,67.3
				c0.8,1.7,3.4,0.2,2.6-1.5c-11.2-23-22.5-46-33.7-69c-5.5-11.2-10.9-22.4-16.4-33.6c-4.8-9.9-8.9-21.2-16.5-29.2
				C566.1,540.6,564,542.7,565.3,544.1L565.3,544.1z"/>
		</g>
	</g>
	<g>
		<g>
			<path class="st3" d="M566.5,543.3c20.7,44.4,40.6,89.4,65.3,131.7c1,1.7,3.6,0.2,2.6-1.5c-24.7-42.4-44.5-87.4-65.3-131.7
				C568.3,540.1,565.7,541.6,566.5,543.3L566.5,543.3z"/>
		</g>
	</g>
	<g>
		<g>
			<path class="st3" d="M564.9,542.2c9.3,5.4,13.1,19.3,17.4,28.5c5.3,11.4,10.7,22.9,16,34.3c10.7,22.9,21.4,45.7,32,68.6
				c0.8,1.7,3.4,0.2,2.6-1.5c-11.2-24.1-22.5-48.1-33.7-72.2c-5.5-11.7-11-23.5-16.4-35.2c-4.1-8.8-7.5-19.9-16.4-25.1
				C564.7,538.6,563.2,541.2,564.9,542.2L564.9,542.2z"/>
		</g>
	</g>
	<g>
		<g>
			<path class="st3" d="M569.2,541.3c29.3-40.7,60.2-80.3,92.4-118.8c1.2-1.5-0.9-3.6-2.1-2.1c-32.4,38.6-63.4,78.4-92.9,119.4
				C565.5,541.4,568.1,542.9,569.2,541.3L569.2,541.3z"/>
		</g>
	</g>
	<g>
		<g>
			<path class="st3" d="M570.9,541.6c14.6-21,29.8-41.6,45.6-61.8c7.6-9.6,15.2-19.1,23.1-28.5c4-4.8,8.1-9.6,12.1-14.4
				c2.4-2.8,8.1-7,7.8-11c0-0.6-0.4-1.3-1.1-1.4c-1.2-0.2-1.7-0.1-2.5,0.8c-0.6,0.7-0.6,1.5,0,2.1c0.1,0.1,0.2,0.2,0.3,0.3
				c1.2,1.5,3.3-0.6,2.1-2.1c-0.1-0.1-0.2-0.2-0.3-0.3c0,0.7,0,1.4,0,2.1c-0.1,0-0.3,0-0.4,0c-0.4-0.5-0.7-1-1.1-1.4
				c0.2,2.2-4.9,6.5-6.3,8.2c-1.8,2.1-3.7,4.3-5.5,6.4c-3.9,4.5-7.7,9.1-11.5,13.7c-7.8,9.4-15.4,19-22.9,28.7
				c-14.5,18.7-28.5,37.8-42,57.2C567.2,541.7,569.8,543.2,570.9,541.6L570.9,541.6z"/>
		</g>
	</g>
</g>
<g id="pencil_cup">
	<path class="st4" d="M543.8,649.7c3.2,21.8,6.5,43.6,9.7,65.4c4.8,1,9.7,1.9,14.5,2.9c4.5-0.8,9-1.6,13.6-2.4
		c3.1-22,6.1-43.9,9.2-65.9c-3.3,2.1-14.7,8.9-29.6,6.8C553.2,655.3,547.2,651.9,543.8,649.7z"/>
	<g>
		<g>
			<path class="st3" d="M535,606.5c4.6,15.2,9.3,30.3,13.9,45.5c0.6,1.8,3.5,1.1,2.9-0.8c-4.6-15.2-9.3-30.3-13.9-45.5
				C537.3,603.8,534.4,604.6,535,606.5L535,606.5z"/>
		</g>
	</g>
	<g>
		<g>
			<path class="st3" d="M538.2,608.7c2.5-2,5.9,11.7,6.3,13c1,3.5,2,7.1,3,10.6c2.1,7.4,4.2,14.8,6.2,22.1c0.5,1.9,3.4,1.1,2.9-0.8
				c-3.3-11.9-6.7-23.7-10-35.6c-1.2-4.1-3.5-16.9-10.5-11.4C534.6,607.8,536.7,609.9,538.2,608.7L538.2,608.7z"/>
		</g>
	</g>
	<g>
		<g>
			<path class="st3" d="M549.5,609c1.9,3.1,2.3,7.4,3.1,10.9c0.9,3.8,1.8,7.7,2.8,11.5c1.8,7.7,3.7,15.3,5.5,23
				c0.4,1.9,3.3,1.1,2.9-0.8c-2-8.3-4-16.6-6-24.9c-0.9-3.8-1.8-7.7-2.8-11.5c-0.8-3.2-1.2-6.8-3-9.7
				C551.1,605.9,548.5,607.4,549.5,609L549.5,609z"/>
		</g>
	</g>
	<g>
		<g>
			<path class="st3" d="M551.3,608.8c4.8-0.8,7.6,21.4,8.4,24.6c1.8,7.7,3.7,15.3,5.6,23c0.5,1.9,3.4,1.1,2.9-0.8
				c-2.9-11-5.5-22-7.9-33.1c-1.2-5.5-1.4-18-9.8-16.5C548.6,606.3,549.4,609.2,551.3,608.8L551.3,608.8z"/>
		</g>
	</g>
	<g>
		<g>
			<path class="st3" d="M552,608.3c4.2,15.4,8,31,11.4,46.6c0.4,1.9,3.3,1.1,2.9-0.8c-3.5-15.6-7.3-31.2-11.4-46.6
				C554.4,605.6,551.5,606.4,552,608.3L552,608.3z"/>
		</g>
	</g>
	<g>
		<g>
			<path class="st3" d="M538,609.9c2.4,2.9,3.1,7.2,4.2,10.7c1.1,3.6,2.2,7.3,3.2,10.9c2.1,7.3,4.1,14.6,6.1,21.9
				c0.5,1.9,3.4,1.1,2.9-0.8c-2.3-8.6-4.6-17.1-7.1-25.6c-1.8-6.3-2.9-14.2-7.1-19.3C538.9,606.3,536.8,608.4,538,609.9L538,609.9z"
				/>
		</g>
	</g>
	<g>
		<g>
			<path class="st3" d="M544.3,650.8c7.3-0.9,14.7-2.3,22-2.5c7.2-0.2,14.5,1.4,21.7,2.4c1.9,0.3,2.7-2.6,0.8-2.9
				c-6.8-1-13.7-2.4-20.6-2.5c-7.9-0.1-16,1.5-23.9,2.5C542.4,648.1,542.4,651.1,544.3,650.8L544.3,650.8z"/>
		</g>
	</g>
	<g>
		<g>
			<path class="st3" d="M552.5,649.1c-0.6-0.2-1.2-0.3-1.8-0.5c-0.1,1-0.3,2-0.4,2.9c0.9,0.4,1.8,0.8,2.7,1.1
				c0.2-0.8,0.4-1.7,0.7-2.5c0.3,1.4,1.1,2.4,2.4,3.2c0.3-0.7,0.6-1.5,0.9-2.2c0.2,0.9,0.4,1.9,0.6,2.8c0.9,0,1.7,0,2.6,0
				c0.1,0,0.3,0,0.4,0c0.7-0.2,1.4-0.4,2.1-0.5c-1-1-0.9-1.2,0.2-0.6c1.4,0.2,1.2,0.9-0.5,2c0.6-0.1,1.2-0.2,1.8-0.2
				c-0.4-3.1,0.6-3.8,2.9-2.1c-1.7-3.5-1.1-3.5,1.8,0.2c-1.9-1.5-1.3-2.4,1.7-2.6c0.2,1.4-0.2,2.7-1.3,3.9c0.6,0.1,1.2,0.2,1.8,0.2
				c0.2-0.2,0.4-0.4,0.5-0.6c0.8-0.1,1.6-0.2,2.4-0.3c0.4-0.7,0.8-1.4,1.3-2.1c0.6,0.5,1.3,1,1.9,1.4c0.2-0.5,0.4-1.1,0.6-1.6
				c0.8,0.6,1.6,1.2,2.4,1.8c0.7-1.5-3-0.5-3.9-0.6c0.4,0.9,0.7,1.7,1.1,2.6c2.5-2.7,5.6-3.6,9.2-2.7c-0.2-0.8-0.4-1.7-0.7-2.5
				c-1.4,1.5-3,2.1-5,1.7c0.4,0.8,0.9,1.5,1.3,2.3c1.4-0.7,2.7-1.3,4.1-2c-0.1-1-0.3-2-0.4-2.9c-1,0.2-2,0.3-3,0.5
				c-1.9,0.3-1.1,3.2,0.8,2.9c1-0.2,2-0.3,3-0.5c1.7-0.3,1.2-2.9-0.4-2.9c-3-0.1-5,1-6.7,3.4c-0.7,1,0.3,2.2,1.3,2.3
				c2.9,0.2,5-0.7,7.1-2.6c0.8-0.8,0.4-2.2-0.7-2.5c-4.6-1.2-8.8,0-12.1,3.5c-0.9,1-0.2,2.5,1.1,2.6c2.1,0.1,11.5-1.2,8.4-5.2
				c-1.7-2.3-6.8-0.7-6.5,2.4c0.3,3.4,5.3,3.3,5.8,0c0.6-4.2-4.8-4.3-6.3-1.1c-0.7,1.4,1.2,3.2,2.4,1.8c4.1-4.7-6.3-8.5-5.7-0.5
				c0.1,0.9,0.9,1.8,1.9,1.4c3.6-1.3,3.7-6.5-0.5-7c-4.5-0.5-6.4,5.4-3.7,8.3c0.6,0.7,1.9,0.6,2.4-0.3c1.4-2.9,2.2-9.7-3.2-8.7
				c-4.8,0.9-4.3,7.1-2.1,9.9c0.4,0.5,1.3,0.6,1.8,0.2c2.7-1.7,4.4-7.4,1.5-9.7c-3.5-2.8-8.1,2.9-8,6.2c0.2,4,4.9,5.2,7,1.8
				c1.9-3.2,0.6-8.5-3.6-8.7c-4-0.1-7.2,5.4-5.3,8.9c1.9,3.6,6.6,2.7,7.6-1c1-4-2-8-5.9-5.6c-3.2,2-5.1,6.3-1.3,8.7
				c0.5,0.3,1.4,0.3,1.8-0.2c1.5-1.8,3.2-3.9,2.6-6.4c-0.4-2-2.2-3.8-4.4-3.4c-3.8,0.7-5.1,7.1-1.5,8.9c0.7,0.3,1.7,0.3,2.1-0.5
				c1.2-2.8,2.1-8.4-2.7-8.3c-4.6,0.2-4.3,5.4-2.8,8.3c0.5,1,2.1,1,2.6,0c1.2-2.2,1.8-4.7,0.1-6.9c-1.3-1.6-3.8-2.3-5.7-1.1
				c-3.9,2.5-1,8,3.2,6.5c0.9-0.3,1.4-1.3,0.9-2.2c-2-3.2-10.3-7.3-11.5-1.3c-0.1,0.5,0,1.1,0.4,1.5c2.1,1.7,4.4,1.7,6.9,1
				c1-0.3,1.6-1.8,0.7-2.5c-1.6-1.3-2.7-1.8-4.8-2c-1.7-0.2-2,2.5-0.4,2.9c0.6,0.2,1.2,0.3,1.8,0.5
				C553.6,652.5,554.3,649.6,552.5,649.1L552.5,649.1z"/>
		</g>
	</g>
	<g>
		<g>
			<path class="st3" d="M584.7,651.8c5.8-8.7,11.7-17.4,17.5-26.1c-0.8,0.1-1.6,0.2-2.4,0.3c3,2.7-13.1,21-14.8,23
				c0.8,0.6,1.6,1.2,2.4,1.8c5.1-7,9.9-14.1,14.4-21.5c0.9-1.4-1.2-3.1-2.4-1.8c-5.5,6.1-10.1,12.7-13.9,20
				c-0.9,1.7,1.7,3.2,2.6,1.5c3.7-7,8.1-13.5,13.4-19.4c-0.8-0.6-1.6-1.2-2.4-1.8c-4.5,7.4-9.3,14.6-14.4,21.5
				c-1,1.4,1.3,3.1,2.4,1.8c4.5-5.3,8.7-10.8,12.5-16.6c1.9-2.9,5.7-7.4,2.3-10.6c-0.7-0.7-1.8-0.5-2.4,0.3
				c-5.8,8.7-11.7,17.4-17.5,26.1C581,651.9,583.6,653.4,584.7,651.8L584.7,651.8z"/>
		</g>
	</g>
	<path class="st13" d="M570.1,658.1c0.9,8.9,1.4,19.1,1.1,30.3c-0.3,11.1-1.3,21.1-2.7,29.9c4.1-1,8.2-2,12.3-3.1
		c3.2-21.1,6.4-42.1,9.6-63.2C583.6,654,576.8,656.1,570.1,658.1z"/>
	<path class="st9" d="M580.7,656.3c0.3,9.2,0,20-1.5,31.9c-1.4,10.7-3.5,20.3-5.8,28.4c3-0.8,6.1-1.5,9.1-2.3
		c2.4-20.8,4.7-41.6,7.1-62.4C586.6,653.5,583.7,654.9,580.7,656.3z"/>
</g>
<g id="torso">
	<path class="st14" d="M922.8,413c7.7-7.9,17.4-16,29.5-22.5c36-19.5,71.6-14.5,85.4-12.4c11,1.7,22.8,3.6,36.5,10.9
		c24.6,13.1,36.9,33.7,41.9,43.5c6.7,21.5,13,47.6,16.3,77.7c5.4,49.1,1.1,91.2-4.7,121.9c-15,6.6-45.4,17.5-84.6,14.8
		c-33.2-2.3-58.3-13.5-72.2-21c-3-31.1-8-65.8-16.3-103.3C945.6,481.3,934.3,444.6,922.8,413z"/>
</g>
<g id="hand_l">
	<path class="st4" d="M1077.9,527.2c-23.9,6.8-19.1,36.9-52.2,71.5c-21.9,22.9-45,31.8-49.9,33.7c-34.7,12.9-66.5,6.1-80.7,2.1
		c-5.8-5.1-19.1-15.2-38.7-18.4c-31.1-5-54.5,11.3-59.4,14.9c8.9-1.4,17.8-2.8,26.7-4.2c-17.6,12.5-25.6,20.2-24.2,23.1
		c1.2,2.4,8.9,1.5,23-2.7c-4.7,7-6.3,11.2-5,12.7c2.2,2.4,12.1-2.3,29.7-14.1c7.1,4.3,17.4,9.7,30.4,14.1c15.7,5.4,30,7.5,45.3,8.5
		c38.4,2.5,68.5,4.4,104-9.2c12.2-4.7,47.7-18.9,72.8-54.5c8.3-11.7,30.8-43.7,18.4-63.6C1110.8,529.5,1092.6,523,1077.9,527.2z"/>
	<g>
		<g>
			<path class="st3" d="M800.2,651.2c7.8-5.9,16.2-10.7,25.3-14.4c1.8-0.7,1-3.6-0.8-2.9c-9.3,3.8-17.9,8.7-26,14.7
				C797.2,649.7,798.7,652.3,800.2,651.2L800.2,651.2z"/>
		</g>
	</g>
	<g>
		<g>
			<path class="st3" d="M819.3,660c2.2-7.6,6.6-14.1,12.9-18.9c1.5-1.2,0-3.8-1.5-2.6c-6.9,5.3-11.8,12.3-14.3,20.7
				C815.9,661,818.8,661.8,819.3,660L819.3,660z"/>
		</g>
	</g>
	<path class="st14" d="M1086.8,443.6c-12.5,15.9-15.2,31.6-19,47.9c-3.6,15.8-9.4,37.7-19,64.2c5.7,5.9,14.9,14.1,28,20.8
		c14.4,7.4,27.7,9.9,36.2,10.9c6.6-9.6,14.9-23.9,19.9-42.5c14.6-54-4.9-116.6-24.4-118.5C1100.8,425.7,1094,434.5,1086.8,443.6z"/>
	<path class="st15" d="M1071.8,575.8c-2.3,6.3-6.1,15.4-12.9,24.8c-19.2,26.8-46.8,36.5-63.1,41.9c-29.9,10-89.9,20.9-126.3,2.1
		c-4.3-2.2-15.4-8.4-27.4-5.2c-11.1,3-18.1,12.7-22,19.7c0.5,0.2,1.2,0.5,2.2,0.7c4,0.8,7.5-1.8,13.7-6.5c5-3.8,8.8-6.7,10.8-8.3
		c8,4.9,20.2,11.4,36,16.2c4.3,1.3,17.1,5,45.3,7.2c25.4,2,39.2,3,57.2,0.7c11.8-1.5,38.4-5.2,66.9-22.3
		c31.4-18.8,48.8-44.2,57.1-58.8C1096.7,584.1,1084.3,579.9,1071.8,575.8z"/>
	<path class="st15" d="M1090.5,583.7c-2.9,6.5-7.5,15.4-14.7,24.8c-9,11.7-22.3,24.7-45,36.7c-44.3,23.5-85,22.7-84.9,23.7
		c0.1,1.2,54.3,9.2,106.8-22.7c31.7-19.2,49.1-44.6,57.2-58.3C1103.4,586.5,1097,585.1,1090.5,583.7z"/>
</g>
<g id="hand_r">
	<path class="st4" d="M901.8,493.1c-5.6,5.7-6.4,9.1-14.9,21.1c-5.6,8-10.9,14-14.3,17.8c-11.6-4.6-28.7-9.7-49.7-10.1
		c-9.5-0.2-18,0.7-25.3,1.9c-4.4-1.4-11-2.9-19-2c-20.4,2.4-34.6,19.3-33.3,21.4c1.6,2.4,27.3-10.7,27-11.5c-0.1-0.3-4.3,0.6-8.2,3
		c-9.3,5.7-13.3,17.7-11.5,19.1c1.8,1.3,7.5-7.8,22.6-15.8c9.6-5.1,17.6-6.9,17.8-6.6c0.1,0.4-10.7,3.1-21,11.8
		c-8.4,7.1-14.1,16.3-12.6,17.9c1.6,1.8,11.1-7.1,29.4-12.3c6-1.7,14.3-4.1,16.1-1.3c3.3,5.2-20.2,22.7-17.3,26.9
		c2,3,17.2-2.1,28.9-10.9c6.8-5.1,11.3-10.7,14.1-14.9c2.2,4.7,6.6,12.4,14.9,18.8c17.8,13.8,38.9,10.3,43.8,9.4
		c17.9-3.5,28.5-14.8,34.4-21.1c5.8-6.1,19.4-20.7,19.5-41.4c0-3.2,0.2-25-12.5-30.5C921.2,479.5,908.5,486.4,901.8,493.1z"/>
	<g>
		<g>
			<path class="st3" d="M873,534c7.6,1.4,14.5,4.9,20.1,10.3c1.4,1.4,3.5-0.8,2.1-2.1c-5.9-5.8-13.3-9.6-21.4-11.1
				C871.9,530.8,871.1,533.7,873,534L873,534z"/>
		</g>
	</g>
	<path class="st14" d="M930.8,401.6c-11.7,12.9-17.3,24.9-20.3,33.6c-5.7,16.7-4.2,28.6-12.5,52.4c-2.6,7.4-5.2,13.3-7,17.2
		c8.1,3.6,17.5,8.4,27.4,14.9c9.7,6.3,17.8,12.9,24.2,18.8c5.6-16.3,11.8-38.9,14.9-66.5c1.7-15.4,7.8-71.5-8.6-77.4
		C945.1,393.2,939.5,394.1,930.8,401.6z"/>
	<path class="st7" d="M919.7,519.8c-1.6,2.4-4,6-7,10.2c-14.1,19.8-21.3,29.8-29,31.7c-5.1,1.3-12.3-1.5-26.4-7.1
		c-12.8-5.1-23-10-29.9-13.5c-3.3,4.4-7.4,9.1-12.2,13.8c-9.5,9.3-19.1,15.9-27,20.4c1.5,0.1,3.9,0.2,6.9-0.2
		c9-1.3,15.4-6,21.4-10.5c3.9-2.9,6-5,6.7-5.8c3-3.2,5-6.2,6.2-8.5c1.6,1.8,4.2,4.7,7.4,8.5c3.4,4,5.7,6.7,6,7.1
		c5,5.9,23.1,14.9,43.7,12.3c28.6-3.6,43.8-27.3,46.8-32.3c2.5-4.2,4.1-7.9,5.2-10.7C932.2,530.1,925.9,525,919.7,519.8z"/>
	<path class="st13" d="M926.8,525.7c3.4,3.1,6.9,6.3,10.3,9.4c-2.6,6-8.1,16.5-18.9,25.6c-4.4,3.7-24.3,20.5-50,15.4
		c-16.3-3.2-26.6-13.5-30.7-18.1c1.3,0.9,28.5,19.2,57.8,5.7C919.2,552.8,925.9,529.1,926.8,525.7z"/>
</g>
<g id="head">
	<path class="st4" d="M1020.1,303.5c7.6,25.3,10.5,39.9,21.4,63c5.1,10.8,10,19.4,13.4,25c-11.1,5.2-29.1,11.9-52.2,12.7
		c-13.7,0.5-25.4-1.2-34.4-3.3c0.9-7,1.5-15.6,0.7-25.4c-0.9-12.4-3.6-22.7-6.2-30.4c-12.3-1.6-24.6-3.1-37-4.7
		c-2.4-5.3-4.8-10.6-7.2-15.9c-3.4-0.1-6.8-0.2-10.1-0.4c2.5-7.3,6.4-18.7,10.9-33c8.3-26.8,8.2-30.6,12.7-36.6
		c12.3-16.4,40.1-27,58.3-18.1C1001.3,241.7,1007.7,262.4,1020.1,303.5z"/>
	<g>
		<g>
			<path class="st3" d="M908.9,325.8c6.3,0.1,12.6-0.3,18.8-1.3c1.9-0.3,1.1-3.2-0.8-2.9c-6,0.9-12,1.3-18,1.2
				C906.9,322.8,906.9,325.8,908.9,325.8L908.9,325.8z"/>
		</g>
	</g>
	<g>
		<g>
			<path class="st3" d="M906.2,277.8c3.8-2,8.7-1,11.2,2.5c1.1,1.5,3.7,0.1,2.6-1.5c-3.5-4.8-10-6.4-15.3-3.6
				C903,276.1,904.5,278.7,906.2,277.8L906.2,277.8z"/>
		</g>
	</g>
	<g>
		<g>
			<path class="st3" d="M910.4,293c-0.3-1.1-0.3-2.3,0-3.4c0.2-0.5,0.4-1.1,0.7-1.6c0.2-0.3,0.4-0.6,0.7-0.7
				c-0.2,0.1-0.3,0.2-0.2,0.4c0.2,2.2-1,4.2-2.6,5.6c0.9,0.4,1.7,0.7,2.6,1.1c0-2,0.5-3.9,1.4-5.7c0.9-1.7-1.7-3.2-2.6-1.5
				c-1.1,2.3-1.7,4.6-1.8,7.2c0,1.4,1.6,1.9,2.6,1.1c1.7-1.4,2.9-3.4,3.3-5.6c0.3-1.8,0.5-4.6-1.6-5.4c-2-0.8-3.8,1-4.6,2.6
				c-1.1,2.1-1.3,4.5-0.8,6.9C908,295.7,910.9,294.9,910.4,293L910.4,293z"/>
		</g>
	</g>
	<g>
		<g>
			<path class="st3" d="M936.4,282.2c4.7-1.5,9.9,0.2,12.8,4.3c1.1,1.6,3.7,0.1,2.6-1.5c-3.6-5.2-10.1-7.6-16.2-5.7
				C933.8,279.9,934.6,282.8,936.4,282.2L936.4,282.2z"/>
		</g>
	</g>
	<g>
		<g>
			<path class="st3" d="M937,296.6c-0.1-1.5,0.1-2.9,0.9-4.2c0.2-0.3,0.4-0.7,0.7-0.9c0-0.4,0-0.4,0,0.1c0,0.7-0.1,1.4-0.2,2
				c-0.2,0.7-0.3,1.3-0.6,2c-0.1,0.3-0.3,0.5-0.4,0.8c0.2,0.7,0.4,0.6,0.6-0.1c0.5-0.5,0.8-1.6,1.1-2.2c0.4-0.7,0.8-1.5,1.1-2.2
				c0.8-1.5-1.1-3-2.4-1.8c-0.8,0.8-1.4,1.7-1.7,2.8c-0.5,1.9,2.3,2.6,2.9,0.8c0.2-0.6,0.4-1,0.9-1.4c-0.8-0.6-1.6-1.2-2.4-1.8
				c-0.9,1.8-2,3.6-2.7,5.4c-0.5,1.2-0.4,2.6,0.8,3.4c3.1,2,5.1-2.3,5.6-4.6c0.5-2.2,0.6-7.2-3.1-6.1c-3.1,0.9-4.3,5.5-4.1,8.3
				C934.1,298.5,937.1,298.5,937,296.6L937,296.6z"/>
		</g>
	</g>
	<path class="st16" d="M927.6,261.3c0.9-5.5,3.1-14.4,9.1-23.7c2.1-3.3,6.7-10.2,14-14.9c13.9-8.9,35.2-8.2,50.7,2.7
		c15.2,10.7,22.7,29.8,19.4,48.9C989.7,270,958.7,265.6,927.6,261.3z"/>
	<g>
		<g>
			<path class="st3" d="M876.7,260.5c47.8,5.9,95.7,11.8,143.5,17.7c5.7,0.7,5.7-8.3,0-9c-47.8-5.9-95.7-11.8-143.5-17.7
				C871,250.8,871.1,259.8,876.7,260.5L876.7,260.5z"/>
		</g>
	</g>
	<path class="st17" d="M989.8,273.1c-8.5,3-13.4,8.7-19,15.5c-12,14.3-8.5,19.6-16.9,28.5c-13.4,14.2-27.1,5.8-39.1,19.7
		c-10.2,11.8-8.9,27.7-8.5,31.4c0.4,3.5,2.2,17.7,14.1,27.5c10.3,8.4,24.2,10.4,25,8.5c0.3-0.7-0.8-2.4-8.5-7.4
		c2.2,1.5,5.7,3.4,10.2,4.2c5.2,0.9,10.2,0,10.2-0.7c0-0.6-2.8-0.6-4.9-2.8c-1.3-1.3-1.8-2.9-2.1-4.2c4.1,2.7,9.4,5,14.4,3.5
		c13.7-4.1,16.1-33.8,16.9-43.7c2.6-31.9-6.8-49.4,4.6-60.6c1-0.9,5.5-5.5,10.6-4.6c6.4,1.2,11.3,10.9,9.2,17.3
		c-1.8,5.5-8.2,7.1-7.8,8.1c0.6,1.3,11.4-0.7,20.4-7.8c3.3-2.6,6-4.7,7.4-8.5c2.5-6.6-0.4-14.2-4.2-18.7
		C1013.9,269.1,999,269.8,989.8,273.1z"/>
	<path class="st11" d="M1002.4,314.3c-2,0.2-4.9,0.3-5.1-0.4c-0.1-0.3,0.6-0.8,0.6-0.8c0-0.1-2.4,3-5.5,3.4
		c-1.5,0.2-2.7-0.3-3.5-0.7c5.4,11.2,10.9,24.7,15.6,40.2c5.1,17,8,32.6,9.7,45.8c5.5,0,13.3-0.6,22.2-3.3
		c7.3-2.3,13.1-5.3,17.3-7.9c-11.5-17.8-17.4-31.9-20.6-41.6c-1.5-4.5-4.8-15.2-6.4-20.5c-3-9.6-5.3-17.5-6.9-22.8
		c-0.8,0.7-2.1,1.8-3.9,3C1013.5,310.3,1008.8,313.6,1002.4,314.3z"/>
	<path class="st18" d="M968.1,217.2c12.4,2.4,21.8,12.1,23.2,23.7c1.7,13.7-8.6,23.1-9.6,23.9c13.2,1.6,26.4,3.2,39.7,4.8
		c0.2-3,0.3-7.1-0.5-11.9c-2.5-15.3-11.7-24.8-13.6-26.8c-3.1-3.1-14-13.2-30.1-14.1C973.4,216.5,970.3,216.9,968.1,217.2z"/>
</g>
</svg>
